<?xml version="1.0" encoding="UTF-8"?>
<svg width="302px" height="302px" viewBox="0 0 302 302" version="1.1" xmlns="http://www.w3.org/2000/svg" xmlns:xlink="http://www.w3.org/1999/xlink">
    <!-- Generator: Sketch 49.1 (51147) - http://www.bohemiancoding.com/sketch -->
    <title>profile</title>
    <desc>Created with Sketch.</desc>
    <defs>
        <circle id="path-1" cx="150" cy="150" r="150"></circle>
        <linearGradient x1="49.9972502%" y1="99.7346507%" x2="49.9972502%" y2="-0.0940644276%" id="linearGradient-3">
            <stop stop-color="#E1AC8F" stop-opacity="0.8" offset="0%"></stop>
            <stop stop-color="#C27B55" offset="70%"></stop>
        </linearGradient>
        <radialGradient cx="49.9994406%" cy="50.0012448%" fx="49.9994406%" fy="50.0012448%" r="87.5437566%" gradientTransform="translate(0.499994,0.500012),scale(0.441469,1.000000),translate(-0.499994,-0.500012)" id="radialGradient-4">
            <stop stop-color="#FFFFFF" offset="0%"></stop>
            <stop stop-color="#FDFEFE" offset="54.4%"></stop>
            <stop stop-color="#F6F8F9" offset="74%"></stop>
            <stop stop-color="#EAEFF2" offset="87.9%"></stop>
            <stop stop-color="#D9E3E8" offset="99.2%"></stop>
            <stop stop-color="#D8E2E7" offset="100%"></stop>
        </radialGradient>
        <radialGradient cx="49.9034194%" cy="49.9614584%" fx="49.9034194%" fy="49.9614584%" r="504.062427%" gradientTransform="translate(0.499034,0.499615),scale(1.000000,0.994704),translate(-0.499034,-0.499615)" id="radialGradient-5">
            <stop stop-color="#FFFFFF" offset="0%"></stop>
            <stop stop-color="#FFFFFF" stop-opacity="0" offset="100%"></stop>
        </radialGradient>
        <radialGradient cx="48.7388151%" cy="49.9295954%" fx="48.7388151%" fy="49.9295954%" r="504.560426%" gradientTransform="translate(0.487388,0.499296),scale(1.000000,0.993539),translate(-0.487388,-0.499296)" id="radialGradient-6">
            <stop stop-color="#FFFFFF" offset="0%"></stop>
            <stop stop-color="#FFFFFF" stop-opacity="0" offset="100%"></stop>
        </radialGradient>
        <linearGradient x1="19.7383594%" y1="85.962504%" x2="67.4932497%" y2="29.0638283%" id="linearGradient-7">
            <stop stop-color="#FFFFFF" offset="0%"></stop>
            <stop stop-color="#FFFFFF" stop-opacity="0" offset="100%"></stop>
        </linearGradient>
        <linearGradient x1="70.3763261%" y1="20.7342148%" x2="40.1551876%" y2="64.1433187%" id="linearGradient-8">
            <stop stop-color="#FFFFFF" offset="0%"></stop>
            <stop stop-color="#FFFFFF" stop-opacity="0" offset="100%"></stop>
        </linearGradient>
        <linearGradient x1="73.5852279%" y1="17.7586167%" x2="38.6514961%" y2="65.5271019%" id="linearGradient-9">
            <stop stop-color="#FFFFFF" offset="0%"></stop>
            <stop stop-color="#FFFFFF" stop-opacity="0" offset="100%"></stop>
        </linearGradient>
        <radialGradient cx="50.2473902%" cy="48.0414252%" fx="50.2473902%" fy="48.0414252%" r="65.6174023%" gradientTransform="translate(0.502474,0.480414),scale(0.732147,1.000000),translate(-0.502474,-0.480414)" id="radialGradient-10">
            <stop stop-color="#E1AC8F" offset="0%"></stop>
            <stop stop-color="#E1AC8F" stop-opacity="0.3" offset="70%"></stop>
            <stop stop-color="#F0C7B1" stop-opacity="0" offset="100%"></stop>
        </radialGradient>
        <radialGradient cx="62.2148816%" cy="191.139431%" fx="62.2148816%" fy="191.139431%" r="221.35807%" gradientTransform="translate(0.622149,1.911394),scale(0.441469,1.000000),translate(-0.622149,-1.911394)" id="radialGradient-11">
            <stop stop-color="#000000" stop-opacity="0" offset="94%"></stop>
            <stop stop-color="#000000" stop-opacity="0.2" offset="100%"></stop>
        </radialGradient>
        <radialGradient cx="49.9967752%" cy="50.0012448%" fx="49.9967752%" fy="50.0012448%" r="87.5437566%" gradientTransform="translate(0.499968,0.500012),scale(0.441469,1.000000),translate(-0.499968,-0.500012)" id="radialGradient-12">
            <stop stop-color="#FFFFFF" offset="0%"></stop>
            <stop stop-color="#FDFEFE" offset="54.4%"></stop>
            <stop stop-color="#F6F8F9" offset="74%"></stop>
            <stop stop-color="#EAEFF2" offset="87.9%"></stop>
            <stop stop-color="#D9E3E8" offset="99.2%"></stop>
            <stop stop-color="#D8E2E7" offset="100%"></stop>
        </radialGradient>
        <radialGradient cx="49.8988926%" cy="49.961257%" fx="49.8988926%" fy="49.961257%" r="504.072272%" gradientTransform="translate(0.498989,0.499613),scale(1.000000,0.994701),translate(-0.498989,-0.499613)" id="radialGradient-13">
            <stop stop-color="#FFFFFF" offset="0%"></stop>
            <stop stop-color="#FFFFFF" stop-opacity="0" offset="100%"></stop>
        </radialGradient>
        <radialGradient cx="48.7319417%" cy="49.927977%" fx="48.7319417%" fy="49.927977%" r="504.619932%" gradientTransform="translate(0.487319,0.499280),scale(1.000000,0.993455),translate(-0.487319,-0.499280)" id="radialGradient-14">
            <stop stop-color="#FFFFFF" offset="0%"></stop>
            <stop stop-color="#FFFFFF" stop-opacity="0" offset="100%"></stop>
        </radialGradient>
        <linearGradient x1="19.7190715%" y1="85.962504%" x2="67.464138%" y2="29.0638283%" id="linearGradient-15">
            <stop stop-color="#FFFFFF" offset="0%"></stop>
            <stop stop-color="#FFFFFF" stop-opacity="0" offset="100%"></stop>
        </linearGradient>
        <linearGradient x1="70.3887179%" y1="20.7342148%" x2="40.1622581%" y2="64.1433187%" id="linearGradient-16">
            <stop stop-color="#FFFFFF" offset="0%"></stop>
            <stop stop-color="#FFFFFF" stop-opacity="0" offset="100%"></stop>
        </linearGradient>
        <linearGradient x1="73.5785574%" y1="17.7586167%" x2="38.6464667%" y2="65.5271019%" id="linearGradient-17">
            <stop stop-color="#FFFFFF" offset="0%"></stop>
            <stop stop-color="#FFFFFF" stop-opacity="0" offset="100%"></stop>
        </linearGradient>
        <radialGradient cx="49.7524552%" cy="48.0414252%" fx="49.7524552%" fy="48.0414252%" r="65.6211128%" gradientTransform="translate(0.497525,0.480414),scale(0.732144,1.000000),translate(-0.497525,-0.480414)" id="radialGradient-18">
            <stop stop-color="#E1AC8F" offset="0%"></stop>
            <stop stop-color="#E1AC8F" stop-opacity="0.3" offset="70%"></stop>
            <stop stop-color="#F0C7B1" stop-opacity="0" offset="100%"></stop>
        </radialGradient>
        <radialGradient cx="37.7813342%" cy="191.139431%" fx="37.7813342%" fy="191.139431%" r="221.35807%" gradientTransform="translate(0.377813,1.911394),scale(0.441469,1.000000),translate(-0.377813,-1.911394)" id="radialGradient-19">
            <stop stop-color="#000000" stop-opacity="0" offset="94%"></stop>
            <stop stop-color="#000000" stop-opacity="0.2" offset="100%"></stop>
        </radialGradient>
        <radialGradient cx="50.0006097%" cy="50.0012158%" fx="50.0006097%" fy="50.0012158%" r="49.9999354%" gradientTransform="translate(0.500006,0.500012),scale(0.999988,1.000000),translate(-0.500006,-0.500012)" id="radialGradient-20">
            <stop stop-color="#FFE4D6" stop-opacity="0.5" offset="0%"></stop>
            <stop stop-color="#F0C7B1" stop-opacity="0" offset="90%"></stop>
        </radialGradient>
        <radialGradient cx="50%" cy="50.0013333%" fx="50%" fy="50.0013333%" r="49.3333333%" id="radialGradient-21">
            <stop stop-color="#FFE4D6" stop-opacity="0.5" offset="0%"></stop>
            <stop stop-color="#F0C7B1" stop-opacity="0" offset="90%"></stop>
        </radialGradient>
    </defs>
    <g id="Page-1" stroke="none" stroke-width="1" fill="none" fill-rule="evenodd">
        <g id="profile" transform="translate(1.000000, 1.000000)">
            <mask id="mask-2" fill="white">
                <use xlink:href="#path-1"></use>
            </mask>
            <use id="Oval" stroke="#979797" fill="#D8D8D8" xlink:href="#path-1"></use>
            <g id="svga-group-backs-single" mask="url(#mask-2)" fill="#2D3E4F" fill-rule="nonzero">
                <g transform="translate(-5.317578, -21.713442)" id="SvgjsPath4091">
                    <polygon points="332.348597 332.348597 0 332.348597 0 0 332.348597 0"></polygon>
                </g>
            </g>
            <g id="svga-group-subwrapper" mask="url(#mask-2)">
                <g transform="translate(29.246677, -10.192024)">
                    <g id="svga-group-hair-back" transform="translate(120.211373, 159.405250) rotate(-3.000000) translate(-120.211373, -159.405250) translate(119.081389, 158.275266)">
                        <polygon id="SvgjsPath3828" fill="#2A232B" fill-rule="nonzero" points="1.69497681 1.69497681 0.564992269 1.69497681 0.564992269 0.564992269 1.69497681 0.564992269"></polygon>
                    </g>
                    <g id="svga-group-humanbody-single" transform="translate(10.169861, 183.057495)">
                        <path d="M220.818188,89.0179219 C218.336742,83.6550153 211.557965,75.707834 204.026618,73.5122741 C194.716676,70.7969212 173.701223,67.5143162 165.90885,65.6893911 C159.662295,64.2249312 147.081047,52.9273458 142.671848,49.1351177 C141.880859,48.4571269 141.233377,47.0570761 141.217558,46.0163603 C141.06049,33.7402083 145.957843,1.12885455 145.957843,1.12885455 L112.998454,1.12885455 L80.0401948,1.12885455 C80.0401948,1.12885455 84.9375477,33.7390783 84.7782199,46.0163603 C84.7657901,47.0570761 84.114919,48.4571269 83.3261898,49.1351177 C78.9169901,52.9273458 66.3357423,64.2249312 60.0891878,65.6893911 C52.2956844,67.5143162 31.280232,70.9087897 21.9714194,73.6241426 C14.4378124,75.8185725 7.66129517,83.6538853 5.17984912,89.0167919 C0.989866455,98.0657081 9.05941434e-15,114.441444 9.05941434e-15,128.566251 L112.998454,128.566251 L225.996908,128.566251 C225.996908,114.442574 225.005911,98.0668381 220.818188,89.0179219 Z" id="SvgjsPath2893" fill="#F0C7B1" fill-rule="nonzero"></path>
                        <path d="M179.843819,71.254565 C207.349903,75.2569702 218.925464,81.0944703 222.550455,128.568511 L225.996908,128.568511 C225.996908,114.443704 225.005911,98.0679681 220.818188,89.0190519 C218.336742,83.6561453 211.557965,75.708964 204.026618,73.5134041 C194.716676,70.7980512 173.701223,67.5154461 165.90885,65.6905211 C159.662295,64.2260612 145.295672,52.0527377 141.452594,47.2152739 C145.249342,52.5307212 155.906227,64.8486826 165.243289,68.0747885 C169.710118,69.6183474 173.430027,70.3211977 179.843819,71.254565 Z M60.7547487,68.0747885 C70.0918109,64.8498126 80.7475651,52.5307212 84.5454431,47.2152739 C80.7034957,52.0516077 66.3368723,64.2260612 60.0891878,65.6905211 C52.2968144,67.5154461 31.281362,70.9099197 21.9714194,73.6252725 C14.4400724,75.8197025 7.66129517,83.6550153 5.17984912,89.0179219 C0.992126424,98.0668381 0.00112998454,114.442574 0.00112998454,128.567381 L3.44758282,128.567381 C7.04997353,81.3973062 18.6741245,75.2513203 46.1542184,71.253435 C52.5668807,70.3211977 56.2879198,69.6183474 60.7547487,68.0747885 Z" id="SvgjsPath2894" fill="#FFE4D6" fill-rule="nonzero"></path>
                        <path d="M108.078501,86.5794153 C108.078501,86.5794153 102.34496,84.7612702 100.074821,83.8911821 C88.2676122,79.361074 49.9091571,76.4253742 49.9091571,76.4253742 C49.9091571,76.4253742 90.3106242,78.0288223 99.2262022,79.5656013 C98.7086693,74.178965 95.8170389,56.9613906 95.8170389,56.9613906 C95.8170389,56.9613906 101.635329,75.9620806 103.05911,80.755475 C103.820719,83.3182799 108.078501,86.5794153 108.078501,86.5794153 Z M120.281204,85.062976 C120.180635,85.1454649 120.065377,85.2528134 119.939949,85.3658119 C120.067637,85.2697632 120.182895,85.1691946 120.281204,85.062976 Z M108.078501,86.5794153 C108.078501,86.5794153 111.347546,89.960329 112.990544,90.0032684 C115.148814,90.0608976 118.446109,86.7274433 119.941079,85.3658119 C118.511648,86.4472071 115.241473,86.9376204 113.940861,86.9884697 C112.437981,87.0460989 108.078501,86.5794153 108.078501,86.5794153 Z M131.828516,78.0830615 C130.08269,78.3632977 126.872404,78.9746193 126.872404,78.9746193 L129.456679,62.1491496 C128.726709,65.6193321 124.401128,80.4673289 120.281204,85.062976 C122.439475,83.236921 127.239649,82.361183 129.687195,82.0074978 C141.253717,80.3306008 141.249197,80.3317308 176.08662,76.4253742 C176.08662,76.4253742 143.23684,76.2502266 131.828516,78.0830615 Z" id="SvgjsPath2895" fill="#E1AC8F" fill-rule="nonzero"></path>
                        <path d="M220.818188,89.0179219 C218.336742,83.6550153 211.557965,75.707834 204.026618,73.5122741 C194.716676,70.7969212 173.701223,67.5143162 165.90885,65.6893911 C159.662295,64.2249312 147.081047,52.9273458 142.671848,49.1351177 C141.880859,48.4571269 141.233377,47.0570761 141.217558,46.0163603 C141.06049,33.7402083 145.957843,1.12885455 145.957843,1.12885455 L112.998454,1.12885455 L80.0401948,1.12885455 C80.0401948,1.12885455 84.9375477,33.7390783 84.7782199,46.0163603 C84.7657901,47.0570761 84.114919,48.4571269 83.3261898,49.1351177 C78.9169901,52.9273458 66.3357423,64.2249312 60.0891878,65.6893911 C52.2956844,67.5143162 31.280232,70.9087897 21.9714194,73.6241426 C14.4378124,75.8185725 7.66129517,83.6538853 5.17984912,89.0167919 C0.989866455,98.0657081 9.05941434e-15,114.441444 9.05941434e-15,128.566251 L112.998454,128.566251 L225.996908,128.566251 C225.996908,114.442574 225.005911,98.0668381 220.818188,89.0179219 Z" id="SvgjsPath2896" stroke="#C27B55" stroke-width="3.82499766"></path>
                    </g>
                    <g id="svga-group-chinshadow-single" transform="translate(91.528748, 190.967387)">
                        <path d="M51.0029821,47.1678146 C53.8448932,45.9598611 56.8981114,43.7462214 59.9603695,40.9314299 C59.4021572,40.0884614 59.0247423,39.0285359 59.0100525,38.1177684 C58.904964,29.8734012 61.0157751,12.8411443 62.4610253,2.23736938 C44.6309993,0.0621491496 18.6503948,0.0711890259 0.821498759,2.25318917 C2.265619,12.8569641 4.37530013,29.8767912 4.2679516,38.1166384 C4.25665175,39.0081962 3.87471698,40.0771616 3.31876459,40.92465 C6.38328265,43.7417015 9.43876084,45.9576011 12.2818019,47.1666846 C20.6922769,50.7442156 42.5925072,50.7442156 51.0029821,47.1678146 Z" id="SvgjsPath4066" fill="url(#linearGradient-3)" fill-rule="nonzero"></path>
                    </g>
                    <g id="svga-group-clothes-single" transform="translate(0.000000, 215.827047)">
                        <path d="M180.931994,33.0407479 C179.611042,52.8279071 181.811122,75.2434104 181.811122,75.2434104 C172.141844,71.0590777 153.631568,55.9455345 148.620086,54.7183713 C143.564536,57.4190343 140.662735,57.3399354 139.410712,57.657461 C132.008184,58.8970541 120.663139,60.8135078 111.914799,56.3602388 C109.59042,56.4031782 107.054735,57.2416267 104.566509,59.1094912 C88.3930405,71.2274453 77.3474416,72.3156205 68.9245369,78.1406907 C70.960769,43.9857781 67.7188434,44.3767528 66.9549738,32.7040125 C65.4713041,32.1458001 65.2566071,31.9288431 64.4712678,30.5220123 C51.7193923,34.4826082 26.8653824,38.0194598 14.4468523,50.3701908 C3.3763938,61.3796301 -0.201137248,78.7305427 1.61587789,94.4599274 C69.7494256,93.7243075 176.282108,92.8383996 244.754651,93.5130004 C245.753557,43.0558008 218.863315,42.8546636 180.931994,33.0407479 Z" id="SvgjsPath4084" fill="#1E78A2" fill-rule="nonzero"></path>
                        <path d="M148.093514,57.369315 C145.539748,56.7331337 143.529506,57.2845661 141.613052,57.2834362 C143.21311,56.9896402 145.503589,56.3839685 148.621216,54.7183713 C153.031546,55.8008964 171.224297,69.5302086 181.317319,75.2083809 C169.890915,72.2715511 157.963928,60.3954136 148.093514,57.369315 Z M116.001953,57.9738567 C114.627891,57.5659323 113.26287,57.0438794 111.914799,56.3591088 C109.59042,56.4020482 107.054735,57.2404967 104.566509,59.1083612 C91.7377947,68.7188797 77.4807798,74.3292529 69.8556441,77.9282537 C107.762105,67.4996264 101.437582,58.1433544 116.001953,57.9738567 Z" id="SvgjsPath4085" fill="#0C6893" fill-rule="nonzero"></path>
                        <path d="M65.7481503,31.568378 C25.7591275,43.0038215 4.93690245,47.7260269 1.79215548,94.4565375 C1.73339628,94.4576675 1.6735071,94.4587975 1.61361792,94.4587975 C0.925457336,88.4890891 1.01698608,82.286604 1.99781266,76.2852561 C3.59787077,66.4702104 7.57767631,57.2009473 14.4457223,50.3690608 C26.8642524,38.0171998 51.7182623,34.4803482 64.4701378,30.5208824 C64.5130772,30.5999813 65.7074709,31.493799 65.7481503,31.568378 Z M180.931994,33.0407479 C180.921824,33.1966857 180.687918,34.1424828 180.678878,34.2961607 C212.205446,43.5157045 242.027998,45.6841449 244.217908,93.5062205 C244.393056,93.5073505 244.576113,93.5096104 244.752391,93.5107404 C245.753557,43.0558008 216.755894,39.2692227 180.931994,33.0407479 Z" id="SvgjsPath4086" fill="#3389B1" fill-rule="nonzero"></path>
                        <path d="M245.419082,93.8723355 C245.419082,93.8723355 210.565839,94.3333692 187.428275,94.4689673 C171.75539,94.5695359 156.089284,94.6542848 140.416399,94.7209539 C39.3754412,95.0825489 34.3639598,94.6294251 0.883647908,94.6294251 C0.883647908,94.6294251 0.305095825,91.3920194 0.174017619,88.207723 C-1.79328546,40.3347981 37.8680418,37.7414836 64.5718364,29.9728399 C64.9063118,29.8756612 65.2645169,30.0180392 65.4407945,30.3186151 C65.8973083,31.0983045 66.7436667,31.6926763 66.8148557,31.7288358 C66.8261556,32.1378902 66.8510152,32.5356448 66.8770049,32.9469592 C65.8871384,32.5729343 65.7447604,32.3921368 64.6181658,31.2259927 C64.5130772,31.1129943 64.3955588,31.0225955 64.2543108,31.0723148 C61.8881231,31.9299731 59.0597718,32.3085179 56.5704159,33.0938572 C62.11638,41.4274931 61.6689061,42.9880018 69.0307554,51.7024425 C69.0409253,51.812051 69.1155042,53.3364002 69.1290641,53.9793614 C61.9570522,46.6604515 60.3954136,42.4388293 55.3387328,33.467882 C34.2136718,40.1732103 13.811801,41.3099747 4.45552903,67.1741908 C1.37632117,75.6965342 0.789859192,85.8019859 1.77972565,94.5356364 C75.4298578,93.7367373 170.405058,92.9649579 244.684592,93.5875794 C243.816764,45.1587021 217.967237,40.7144729 190.926707,35.5312338 C189.081443,40.0749016 184.19539,46.4175048 180.780576,49.9984258 C180.755717,49.2650659 180.731987,48.5147561 180.718427,47.7813962 C182.584032,45.3575793 187.8249,37.929061 189.070143,35.1346092 C186.409029,34.3854295 183.758086,34.1899422 181.109402,33.4079929 C181.109402,33.0554377 181.109402,32.7232222 181.109402,32.3853568 C240.381611,39.4726199 245.419082,55.6370487 245.419082,93.8723355 Z M148.729695,55.026857 C148.456239,54.9127286 148.183912,54.8404096 147.907066,54.8042501 C144.980406,55.5184003 143.9702,56.3206893 139.055897,57.2902161 C135.16536,58.0597355 124.385308,59.6891732 116.004213,57.5535025 C116.048282,57.6755408 116.004213,57.5535025 116.004213,57.5535025 C114.72959,56.8495221 113.484347,56.6438649 111.970168,56.6800244 C121.582946,62.1389797 141.505704,58.2326232 148.729695,55.026857 Z M162.546016,63.8520363 C162.20928,63.6136095 161.886105,63.3785727 161.564059,63.1277162 C139.941805,74.1484554 119.246138,73.8998588 97.3956273,69.0296254 C96.0136562,68.6702903 94.6452449,68.2680158 93.2881335,67.8465316 C92.8655193,68.0702685 92.4304752,68.2962655 91.9807414,68.4917528 C114.373645,77.5926482 141.978037,76.438934 162.546016,63.8520363 Z" id="SvgjsPath4087" fill="#004F74" fill-rule="nonzero"></path>
                        <path d="M68.9799061,78.339568 C71.0850673,43.2298185 65.7334605,40.0726417 67.0498925,25.6257893 C71.2477851,23.168073 75.4117781,22.4166333 77.5124193,19.9713467 C87.5365122,8.24888712 86.3647182,3.24192564 92.8790791,0.176277588 C94.1740414,5.59681342 94.9593806,18.3215693 94.9672905,18.487677 C99.8849832,33.0633476 103.233127,39.2918223 107.262652,45.1507922 C109.60285,48.5452657 114.599642,53.7544944 115.795165,57.2992559 C113.392818,56.0935624 109.229955,56.0901725 104.617358,59.3038485 C97.1391208,64.4690078 99.8397838,65.698431 84.258427,71.3506137 C78.7316727,73.3393864 73.9620079,76.0411795 68.9799061,78.339568 Z M180.591869,47.6220684 C180.587349,47.2638633 180.991883,29.1829807 181.039343,27.6801012 C173.022102,24.7432714 164.489589,2.50291575 153.537779,0.995516378 C150.304893,21.2188496 154.144581,13.9485291 144.513723,38.437554 C142.135105,44.4874912 141.236767,46.77345 140.797203,56.8031927 C141.04354,56.7387836 141.469544,56.6246552 141.491014,56.6246552 C144.810908,55.7500471 145.918293,55.2246043 147.935316,54.6799518 C148.965862,54.8923889 150.681178,55.7749068 150.999834,56.0280233 L150.990794,56.0144635 C160.291697,60.9807456 168.967718,69.935873 181.861971,75.4445476 C182.122998,70.5844841 180.591869,58.5275491 180.591869,47.6220684 Z" id="SvgjsPath4088" fill="#FFFFFF" fill-rule="nonzero"></path>
                        <path d="M142.837955,56.2517603 C142.427771,56.3692787 141.990467,56.490187 141.491014,56.6223952 C141.468414,56.6223952 141.04354,56.7376536 140.797203,56.8009328 C141.236767,46.77119 142.135105,44.4852313 144.513723,38.4352941 C154.144581,13.9462692 150.304893,21.2177197 153.537779,0.993256409 C155.731079,1.2938323 157.82946,2.59218453 159.845353,4.47925871 C158.458862,15.2141118 155.506212,23.6889958 151.205491,33.3695734 C156.246352,30.5197524 161.712087,27.0292301 166.65464,24.3003175 C156.37969,33.5492409 146.111521,42.8004243 142.837955,56.2517603 Z M115.795165,57.2992559 C114.598512,53.7544944 109.60285,48.5452657 107.262652,45.1507922 C103.233127,39.2918223 99.8849832,33.0644776 94.9672905,18.487677 C94.9593806,18.3215693 94.1740414,5.59681342 92.8790791,0.176277588 C88.7591554,2.11307109 89.1049307,3.5153819 86.3579383,8.21046765 C88.570448,19.6538211 93.0417968,26.9286615 99.3832701,36.4431313 C93.977424,32.8791601 86.4313873,26.7874134 78.9633195,23.0562045 C91.5445673,32.4893154 100.590094,44.57676 109.080797,57.077779 C111.83683,56.2393304 114.203017,56.5026168 115.795165,57.2992559 Z" id="SvgjsPath4089" fill="#DEDBD4" fill-rule="nonzero"></path>
                        <path d="M107.365481,45.0818631 C101.221755,36.1470754 98.4273032,28.0303964 95.0915888,18.4820271 C95.0915888,18.4820271 94.5469363,5.334657 93.2135545,0 C86.5003164,3.08033785 87.5003527,6.85335622 77.4175006,18.6436149 C74.5665497,21.9623795 70.6963526,23.3556504 66.9244642,25.6156195 C65.9571975,36.2363442 68.9392267,44.3552831 69.1279341,53.9827513 C69.3968704,61.0745343 69.3686208,69.8929336 68.842048,78.5395753 C73.8704792,76.2321469 78.7011631,73.4806345 84.3002365,71.4681321 C99.899673,65.8114295 97.2204797,64.5627965 104.688547,59.4066771 C109.507932,56.0472331 113.748763,56.2664501 116.004213,57.5535025 C114.983837,53.9680615 109.773478,48.5746453 107.365481,45.0818631 Z M90.1874559,67.7595228 C80.2944413,71.6545795 83.0075342,69.8432143 69.42625,77.6310677 C73.2207381,50.715966 67.4600769,38.2669264 67.4600769,26.1365424 C71.3675634,24.115 75.1213721,23.0143951 78.0028326,19.7159702 C88.789665,7.31099996 86.5421258,4.27360152 92.5152241,0.623751465 C92.8892489,4.18320276 93.1875649,7.7686437 93.3751423,11.3653845 C94.0113236,24.0924003 92.3140868,15.3994293 97.3210483,28.5151598 C104.721317,47.8977846 111.78372,49.911417 115.131865,56.6088354 C105.629825,52.468572 98.8657372,64.8667624 90.1874559,67.7595228 Z M180.718427,47.6198084 C180.711647,47.1248752 181.157991,27.700441 181.167031,27.5953524 C173.135101,24.8155904 164.208223,2.20120988 153.062056,0.859918233 C152.119648,6.65221897 151.006614,19.1927874 151.006614,19.1927874 C143.407468,44.6468191 141.383665,40.2376194 140.663865,56.9704304 C140.667255,56.9704304 141.469544,56.7478235 141.522653,56.7444335 C144.69113,55.908245 145.895694,55.3805422 147.908196,54.8053801 C148.225722,54.8675292 148.743255,55.025727 149.05287,55.1624552 C149.09581,55.1850549 150.973844,56.1105122 150.933165,56.124072 C160.292827,61.1253836 168.942858,70.1065007 181.97836,75.6276051 C182.282326,70.8703702 180.718427,58.6450675 180.718427,47.6198084 Z M172.987073,69.3787906 C164.262462,64.1480922 158.222695,57.808879 148.965862,54.0302107 C146.458426,52.9725451 143.23345,55.1240357 141.02772,56.7444335 C142.244714,46.1022392 141.826619,48.5170161 144.087718,42.4049297 C154.505046,14.1135069 151.590816,30.1265178 154.032712,1.46671993 C163.585602,4.6555363 172.328292,25.142156 180.157955,27.6676714 C177.642609,57.4348541 181.017873,67.9911696 181.415628,74.7428272 C178.505917,73.1766687 175.814294,71.0715075 172.987073,69.3787906 Z" id="SvgjsPath4090" fill="#AFA9A0" fill-rule="nonzero"></path>
                    </g>
                    <g id="svga-group-head" transform="translate(297.756199, 308.515457) rotate(-3.000000) translate(-297.756199, -308.515457) translate(15.260064, 14.719477)">
                        <g id="svga-group-ears-left" transform="translate(36.159505, 108.478516)" fill-rule="nonzero">
                            <path d="M15.4480186,9.42859098 C13.7699916,6.64656905 8.29860644,-0.96613678 4.11314372,0.101698608 C0.70963029,0.974046671 0.753699687,5.71885175 0.490413289,8.52573334 C0.106218547,12.643397 -0.0338995361,19.8165388 1.08365517,22.727379 C2.15827047,25.5218308 5.55839394,30.9220269 7.66920506,32.9819887 C10.2670395,35.5075041 14.4152127,43.556384 14.9259658,44.3914426 C15.7293848,45.7112645 17.3407427,47.6005986 19.8131489,47.4514407 C23.2833314,47.2423936 26.2811804,43.9631784 26.5535067,42.38346 C28.0236165,33.8068774 19.8154089,16.6672719 15.4480186,9.42859098 Z" id="SvgjsPath4073" stroke="#C27B55" stroke-width="3.82499766" fill="#F0C7B1"></path>
                            <path d="M13.7858114,26.3749691 C13.6242236,25.7387878 13.7937213,24.6653025 13.959829,23.6302367 C14.1101169,22.6866996 14.251365,21.7951418 14.1654862,21.1646104 C13.8389206,18.8029427 12.0015658,14.3169041 10.8026522,11.8851774 C9.42068109,9.08733565 7.18783164,5.56291388 4.38546999,4.65440631 C3.22836582,4.27812146 2.46562626,4.72785531 2.02493229,5.18323907 C1.69949674,5.5177145 1.62604775,5.9120791 1.7322663,5.95953845 C1.83961483,6.00586782 2.07917155,5.67930229 2.42946676,5.37307648 C2.71648283,5.12221991 1.85543461,5.3278771 2.42946676,5.37307648 C2.19781993,6.5482604 1.45203013,12.494239 1.9661731,16.8345096 C2.37070756,20.2493229 3.15265686,22.799698 3.39334357,23.1816328 C3.42837309,23.5839073 3.48713228,23.9782719 3.57414109,24.3602067 C4.7063856,29.3434385 12.0693648,35.8600593 13.7824214,37.7166239 C14.0988171,38.0590092 14.4310325,38.2624064 14.5123914,38.1787876 C14.5937503,38.0951687 14.398263,37.7573033 14.0841273,37.4126581 C12.3914104,35.5685233 5.07702053,29.0722422 3.9831955,24.265288 C2.82270138,19.1645378 8.40369501,11.6015512 9.29299284,10.0014931 C9.74611664,10.7529329 10.1314414,11.473863 10.4274973,12.0750148 C10.6614041,12.5462183 10.9179106,13.0987808 11.184587,13.6965426 C10.6614041,14.5304712 5.40132609,20.6199578 6.73922778,25.4947111 C7.23416101,27.2925165 11.0580287,29.6101148 12.5371784,30.2440362 C13.3507673,30.5943314 13.6558631,31.1163842 14.0106783,31.719796 C14.4219927,32.4249063 14.0479678,34.2385315 15.4005593,34.8148236 C15.6762755,34.932342 15.9248721,34.9798013 16.1452191,34.9798013 C16.5271538,34.9798013 16.8164299,34.8329034 17.029997,34.6588857 C17.0525967,34.9651115 17.0514667,35.3583462 17.0401668,35.7222012 C17.026607,36.1945347 17.0932761,36.4103618 17.2074045,36.4194016 C17.3237929,36.4295715 17.4447013,36.2227843 17.4593911,35.7561007 C17.4786008,35.1798086 17.4752109,34.4667884 17.3723823,34.1244031 C17.0684164,33.1198468 16.1429591,31.9842123 15.1610025,30.7830388 C14.1959957,29.6022049 14.0366679,27.3603156 13.7858114,26.3749691 Z M3.35492409,21.9578595 C0.701720398,14.1349766 4.80469425,7.00929409 5.40019611,5.93580878 C6.54374046,6.38667261 8.29521649,8.41386487 9.0398763,9.59130876 C8.49748372,10.5325859 3.46566258,16.6955215 3.35492409,21.9578595 Z M15.5621471,34.423849 C14.3372438,33.9017961 14.764378,32.1819596 14.3688834,31.5039689 C14.0095483,30.8915173 13.6389134,30.2587259 12.6976362,29.8541915 C12.494239,29.7660527 12.2693721,29.6327145 12.0388553,29.4790366 C9.00823673,22.6143806 12.3699407,19.6142716 13.2129092,19.00069 C13.4716757,19.8391385 13.663773,20.608658 13.7507818,21.2267595 C13.8276208,21.7917518 13.6841128,22.6934795 13.5462546,23.5635676 C13.373367,24.6427028 13.1959594,25.7602575 13.3801469,26.4834476 C13.6558631,27.5603229 13.8445706,29.8395017 14.8389569,31.057625 C15.7214749,32.1378902 16.6277225,33.252055 16.9373382,34.1605626 C16.8040001,34.3413601 16.3847758,34.7752741 15.5621471,34.423849 Z" id="SvgjsPath4074" fill="#C27B55"></path>
                        </g>
                        <g id="svga-group-ears-right" transform="translate(162.717773, 108.478516)" fill-rule="nonzero">
                            <path d="M11.3744244,9.42859098 C13.0535814,6.64656905 18.5249665,-0.96613678 22.7092993,0.101698608 C26.1128127,0.974046671 26.0687433,5.71885175 26.3331597,8.52573334 C26.7173544,12.643397 26.8563425,19.8165388 25.7399178,22.727379 C24.6653025,25.5218308 21.264049,30.9220269 19.1543679,32.9819887 C16.5565334,35.5075041 12.4072302,43.556384 11.8976072,44.3914426 C11.0941882,45.7112645 9.48283024,47.6005986 7.00929409,47.4514407 C3.54024156,47.2423936 0.542392578,43.9631784 0.26893632,42.38346 C-1.20004358,33.8068774 7.00929409,16.6672719 11.3744244,9.42859098 Z" id="SvgjsPath4075" stroke="#C27B55" stroke-width="3.82499766" fill="#F0C7B1"></path>
                            <path d="M11.6637004,30.7841688 C10.6817438,31.9853423 9.7562865,33.1209768 9.45232066,34.125533 C9.34836208,34.4690483 9.34610211,35.1820686 9.36418186,35.7572307 C9.38000165,36.2239143 9.50090999,36.4307015 9.61842838,36.4205316 C9.73368681,36.4114918 9.79922591,36.1956647 9.7856661,35.7233312 C9.77436625,35.3594762 9.77210628,34.9662415 9.79470597,34.6600157 C10.0082731,34.8340333 10.2975491,34.9809313 10.6794839,34.9809313 C10.8998309,34.9809313 11.1495574,34.933472 11.4252737,34.8159536 C12.7756052,34.2385315 12.4027103,32.4249063 12.8140247,31.7209259 C13.1688398,31.1175142 13.4739356,30.5943314 14.2886545,30.2451661 C15.7678042,29.6112448 19.5916719,27.2947765 20.0866051,25.4958411 C21.4245068,20.6210878 16.1644288,14.5304712 15.641246,13.6976726 C15.9056624,13.0999107 16.1644288,12.5473483 16.3960756,12.0761448 C16.6943916,11.474993 17.0785863,10.7529329 17.5328401,10.0026231 C18.4221379,11.6026812 24.0020016,19.1645378 22.8426374,24.2664179 C21.7476824,29.0733722 14.4344225,35.5696533 12.7417056,37.413788 C12.42644,37.7584333 12.2298227,38.0962987 12.3111815,38.1799176 C12.3948004,38.2635364 12.7258859,38.0601392 13.0411515,37.7177539 C14.7542081,35.8611893 22.1160574,29.3445685 23.2483019,24.3613366 C23.3364407,23.9794019 23.3963299,23.5850373 23.4313594,23.1827628 C23.6697861,22.801958 24.4528654,20.2515829 24.8573999,16.8356396 C25.3715428,12.495369 24.625753,6.54939038 24.3941062,5.37420646 C24.9681383,5.32900708 24.1070901,5.12334989 24.3941062,5.37420646 C24.7455314,5.68043227 24.9850881,6.0069978 25.0913067,5.96066844 C25.1975252,5.91320909 25.1240762,5.51997447 24.7997706,5.18436906 C24.3579467,4.72898529 23.5952071,4.27925144 22.438103,4.6555363 C19.6357413,5.56404386 17.4017619,9.08846564 16.0197908,11.8863074 C14.8208772,14.3180341 12.9846523,18.8040727 12.6580868,21.1657404 C12.572208,21.7962717 12.713456,22.6878295 12.863744,23.6313666 C13.0287217,24.6664325 13.1993494,25.7399178 13.0377616,26.3760991 C12.786905,27.3603156 12.6287072,29.6022049 11.6637004,30.7841688 Z M17.7836967,9.59130876 C18.5294864,8.41386487 20.2798325,6.38780259 21.4233768,5.93580878 C22.0188787,7.00929409 26.1218526,14.1349766 23.4697788,21.9578595 C23.3590404,16.6955215 18.3272192,10.5325859 17.7836967,9.59130876 Z M9.8873647,34.1583026 C10.1958505,33.249795 11.1032281,32.1356303 11.985746,31.055365 C12.9790024,29.8372417 13.1688398,27.5580629 13.444556,26.4811876 C13.6276135,25.7579975 13.4513359,24.6404428 13.2795783,23.5613076 C13.1405902,22.6912195 12.9970822,21.7894918 13.0739211,21.2244996 C13.1597999,20.606398 13.3518973,19.8368786 13.6106638,18.99843 C14.4536322,19.6120116 17.8153362,22.6132506 14.7847177,29.4767766 C14.5553308,29.6304545 14.3304639,29.7637927 14.1248067,29.8519315 C13.1846596,30.256466 12.8140247,30.8892573 12.4535596,31.5017089 C12.058065,32.1796997 12.4863291,33.9006661 11.2614259,34.421589 C10.4387972,34.7752741 10.0195729,34.3413601 9.8873647,34.1583026 Z" id="SvgjsPath4076" fill="#C27B55"></path>
                        </g>
                        <g id="svga-group-faceshape-wrap" transform="translate(44.069397, 23.729675)">
                            <g id="svga-group-faceshape-single">
                                <path d="M119.480045,142.576929 C114.339745,153.749086 99.6262167,174.557751 88.2913419,179.376005 C79.8819969,182.952407 57.9806366,182.952407 49.5701617,179.376005 C38.2375468,174.556621 23.5240181,153.747956 18.3814585,142.576929 C12.4038403,129.592277 2.42833677,87.6336908 2.41477696,87.5726717 C0.945797058,81.9272689 0.15932782,76.00276 0.150287944,69.8940636 C0.0926587321,31.4203501 30.836148,0.190967387 68.8239682,0.131078206 C106.815178,0.0711890259 137.654716,31.2000031 137.711216,69.6737166 C137.721385,75.784673 136.955256,81.7114419 135.505486,87.3613646 C135.486276,87.4212538 125.479133,129.542557 119.480045,142.576929 Z" id="SvgjsPath4063" fill="#F0C7B1" fill-rule="nonzero"></path>
                                <path d="M80.4006598,1.11190479 C110.903462,8.28391665 133.619542,35.9798377 133.568692,69.0510951 C133.558522,75.1609215 132.773183,81.0854305 131.304203,86.7308332 C131.290643,86.7918524 120.955805,128.786598 115.036946,141.735091 C110.045804,152.649611 96.681477,172.550899 85.8076358,177.692329 C82.2267148,179.386175 72.8817427,179.78845 68.9313168,179.78845 C64.9831508,179.78845 55.6370487,179.386175 52.0572577,177.692329 C41.1834165,172.550899 27.8179593,152.649611 22.8279476,141.735091 C16.9079586,128.786598 6.57312006,86.7918524 6.56069023,86.7308332 C5.09171033,81.0865604 4.30524109,75.1609215 4.29620121,69.0510951 C4.24422192,35.9798377 26.9580411,8.28391665 57.4631037,1.11190479 C24.8935594,6.649959 0.0983086548,35.3413964 0.151417928,69.8940636 C0.160457804,76.00276 0.946927043,81.9272689 2.41590694,87.5726717 C2.42946676,87.6336908 12.3383012,129.622786 18.3825885,142.576929 C23.5827773,153.720837 38.4262542,174.122707 49.5712917,179.376005 C53.7194649,181.333139 64.3605293,182.058589 68.9324468,182.058589 C73.5009742,182.058589 84.1465586,181.332009 88.2924718,179.376005 C99.4363793,174.122707 114.282116,153.720837 119.481175,142.576929 C125.526592,129.622786 135.435427,87.6336908 135.447857,87.5726717 C136.916836,81.9272689 137.703306,76.00276 137.712346,69.8940636 C137.765455,35.3413964 112.970204,6.649959 80.4006598,1.11190479 Z" id="SvgjsPath4064" fill="#E8B9A0" fill-rule="nonzero"></path>
                                <path d="M119.480045,142.576929 C114.339745,153.749086 99.6262167,174.557751 88.2913419,179.376005 C79.8819969,182.952407 57.9806366,182.952407 49.5701617,179.376005 C38.2375468,174.556621 23.5240181,153.747956 18.3814585,142.576929 C12.4038403,129.592277 2.42833677,87.6336908 2.41477696,87.5726717 C0.945797058,81.9272689 0.15932782,76.00276 0.150287944,69.8940636 C0.0926587321,31.4203501 30.836148,0.190967387 68.8239682,0.131078206 C106.815178,0.0711890259 137.654716,31.2000031 137.711216,69.6737166 C137.721385,75.784673 136.955256,81.7114419 135.505486,87.3613646 C135.486276,87.4212538 125.479133,129.542557 119.480045,142.576929 Z" id="SvgjsPath4065" stroke="#C27B55" stroke-width="3.82499766"></path>
                            </g>
                        </g>
                        <g id="svga-group-mouth-single" transform="translate(94.918701, 172.887634)" fill="#C27B55" fill-rule="nonzero">
                            <path d="M18.4639473,12.3450811 C16.7395909,12.3450811 15.0762537,12.1269941 14.0570076,11.7269795 C13.7666016,11.6117211 13.6230936,11.2840256 13.737222,10.9947496 C13.8513505,10.7043435 14.177916,10.5619655 14.469452,10.6749639 C16.3497463,11.4128438 21.0855115,11.4388335 23.1748529,10.4568769 C23.458479,10.3246687 23.7940844,10.4455771 23.9262926,10.7269432 C24.0596308,11.0094394 23.9387224,11.3461747 23.6562263,11.4783829 C22.3906436,12.0727548 20.389441,12.3450811 18.4639473,12.3450811 Z M35.0577703,2.76168221 C35.5075041,2.56845485 35.7176813,2.04753198 35.5244539,1.59666815 C35.3312265,1.14580432 34.8069137,0.937887166 34.3594398,1.12998454 C21.1770402,6.77086735 1.88142426,1.51191931 1.68932688,1.45994002 C1.21812333,1.32886182 0.726580058,1.60344806 0.595501851,2.07691158 C0.464423645,2.54924512 0.740139872,3.03852842 1.21247341,3.17073661 C1.73565625,3.31537463 9.90431447,5.54370414 19.3306455,5.54370414 C24.551174,5.54257416 30.1536374,4.8600635 35.0577703,2.76168221 Z" id="SvgjsPath4070"></path>
                        </g>
                        <g id="svga-group-eyes-left" transform="translate(62.149150, 90.398763)" fill-rule="nonzero">
                            <g id="svga-group-eyesback-left" transform="translate(5.649923, 20.339722)" fill="url(#radialGradient-4)">
                                <path d="M1.06444543,5.82168034 C0.820368774,8.94043766 2.96507943,12.644527 15.1802123,13.6908927 C25.9749546,14.61522 30.5706017,12.8343644 30.8903873,9.28169299 C31.2101729,5.72902161 27.04053,1.38649103 16.3361865,0.827148682 C6.80928682,0.329955485 1.34242163,2.265619 1.06444543,5.82168034 Z" id="SvgjsPath3669"></path>
                            </g>
                            <g id="svga-group-eyesiriswrapper-left" transform="translate(15.254791, 20.622218)">
                                <g id="svga-group-eyesiriscontrol-left">
                                    <g id="svga-group-eyesiris-left">
                                        <path d="M13.5598145,6.77990723 C13.5598145,10.523546 10.523546,13.5598145 6.77990723,13.5598145 C3.03626845,13.5598145 0,10.523546 0,6.77990723 C0,3.03513847 3.03626845,-4.22988216e-15 6.77990723,-4.22988216e-15 C10.523546,-0.00112998454 13.5598145,3.03513847 13.5598145,6.77990723 Z" id="SvgjsPath3891" fill="#000000"></path>
                                        <path d="M6.02055762,0.0745789795 C5.99456797,0.0779689331 5.96744834,0.0813588867 5.94032871,0.0847488403 C5.97309827,0.237296753 6.00473783,0.39097465 6.0363774,0.543522563 C6.02959749,0.388714681 6.02620754,0.230516846 6.02055762,0.0745789795 Z M6.03524742,0.542392578 C6.11434633,2.77072209 6.24429456,4.75610492 6.61944942,5.4736451 C6.81719672,4.68717586 6.48046132,2.72778267 6.03524742,0.542392578 Z M6.62057941,5.47477508 C6.57199007,5.6634825 6.49854108,5.79230074 6.38554262,5.83524015 C6.27254417,5.87817956 6.13016612,5.82846025 5.96970831,5.71885175 C6.01603768,5.90755916 6.01151774,6.05445715 5.92902887,6.1459859 C5.84766998,6.23751465 5.70190198,6.26011434 5.50754464,6.23412469 C5.63523289,6.38102268 5.70077199,6.51549084 5.67252238,6.63300924 C5.6420128,6.75052763 5.52110445,6.83866642 5.34143691,6.90646549 C5.52110445,6.97765452 5.6420128,7.06579331 5.67026241,7.18331171 C5.69851202,7.3008301 5.63297292,7.43529826 5.50641465,7.58106626 C5.69851202,7.55733659 5.84654,7.58219625 5.92563892,7.673725 C6.00586782,7.76525374 6.01038776,7.91328172 5.96518837,8.10198914 C6.12451619,7.99238063 6.26463428,7.94492128 6.37763273,7.98899068 C6.49176117,8.03193009 6.56521016,8.16074833 6.61040955,8.35058573 C6.70193829,8.17882808 6.8036369,8.06921958 6.92680522,8.05678975 C7.04432361,8.04096997 7.17088188,8.12345884 7.29857013,8.26922685 C7.29970011,8.07486951 7.34037956,7.93136147 7.44207817,7.86243241 C7.5415168,7.79350336 7.68954478,7.80706317 7.8703423,7.87712221 C7.78220351,7.70536456 7.75169393,7.55959656 7.80819316,7.45111804 C7.86469238,7.34376951 8.00368048,7.2861403 8.19690784,7.26354061 C8.03758002,7.15167214 7.94040135,7.0375437 7.94266132,6.91550537 C7.94266132,6.79346704 8.03758002,6.6793386 8.19916781,6.5697301 C8.00707043,6.54600043 7.8703423,6.48837122 7.81271309,6.38102268 C7.75734385,6.27367415 7.78785343,6.12677616 7.8782522,5.95501851 C7.6951947,6.02281759 7.54829671,6.0363774 7.44885807,5.96744834 C7.34828945,5.89851929 7.30761001,5.75501125 7.30761001,5.56065391 C7.18105174,5.70529193 7.05449347,5.78552083 6.93471511,5.76970105 C6.81267678,5.75388127 6.70984818,5.64766272 6.62057941,5.47477508 Z M7.30648002,5.55952393 C7.84774261,4.9549822 8.46019423,3.06338808 9.08055574,0.922067383 C8.11554895,2.93004991 7.30761001,4.74819503 7.30648002,5.55952393 Z M9.07942576,0.922067383 C9.14722483,0.784209269 9.21615389,0.644091186 9.28056301,0.503973104 C9.25683333,0.496063212 9.23310366,0.484763367 9.20937398,0.474593506 C9.16643457,0.624881449 9.12349516,0.775169393 9.07942576,0.922067383 Z M7.8782522,5.95501851 C8.63760181,5.67026241 10.0602523,4.27925144 11.6038112,2.67241343 C9.81730566,4.00127525 8.25566703,5.23634835 7.8782522,5.95501851 Z M11.6038112,2.67241343 C11.7168097,2.58766459 11.8331981,2.50291575 11.9484565,2.41816691 C11.9326367,2.39782719 11.914557,2.38087742 11.9009972,2.36279767 C11.8026885,2.46449628 11.7043798,2.56958484 11.6038112,2.67241343 Z M8.19690784,6.5697301 C9.00258681,6.66916874 10.9088707,6.09852655 13.0242018,5.3934162 C10.8229919,5.74145144 8.86811865,6.10869641 8.19690784,6.5697301 Z M13.0242018,5.39454618 C13.1485001,5.37646643 13.2784483,5.35612671 13.4050066,5.33578699 C13.4004866,5.31431728 13.3948367,5.29284757 13.3891868,5.27137787 C13.2682784,5.31205731 13.1439801,5.35386674 13.0242018,5.39454618 Z M8.19577785,7.26241062 C8.86246873,7.72796425 10.815082,8.10650907 13.011772,8.46358419 C10.9043508,7.74830397 9.00258681,7.16636194 8.19577785,7.26241062 Z M13.0129019,8.46358419 C13.1202505,8.50087368 13.228729,8.53929315 13.3349475,8.57432267 C13.3405975,8.55511293 13.3451174,8.53703318 13.3485073,8.51782344 C13.2388988,8.50087368 13.1247704,8.48279392 13.0129019,8.46358419 Z M7.8703423,7.87599223 C8.24662716,8.59579238 9.8003559,9.83990535 11.5789516,11.180067 C10.0433026,9.56418913 8.6308219,8.16526827 7.8703423,7.87599223 Z M11.5800815,11.177807 C11.6467506,11.2478661 11.7156797,11.3201851 11.7823488,11.3913741 C11.7936486,11.3778143 11.8038185,11.3676444 11.8162483,11.3552146 C11.7371494,11.2964554 11.6557905,11.2365662 11.5800815,11.177807 Z M7.29968935,8.26809686 C7.29631016,9.08055574 8.09407924,10.9020908 9.04778619,12.9157233 C8.43872453,10.7721426 7.83870274,8.87602854 7.29968935,8.26809686 Z M9.04778619,12.9168533 C9.07151587,13.0016021 9.09637553,13.0886109 9.11897522,13.1756197 C9.13592499,13.1688398 9.14722483,13.1643199 9.16304462,13.1597999 C9.12575513,13.078441 9.08620567,12.9948222 9.04778619,12.9168533 Z M6.61153953,8.34945575 C6.23186473,9.0692559 6.09061666,11.0501188 5.99908791,13.2773183 C6.45560166,11.0964482 6.80476689,9.13818496 6.61153953,8.34945575 Z M5.99908791,13.2773183 C5.97987817,13.3620672 5.96405839,13.447946 5.94597864,13.5349548 C5.96179842,13.5383447 5.97422825,13.5383447 5.99004803,13.5406047 C5.992308,13.4535959 5.99682794,13.3631971 5.99908791,13.2773183 Z M5.96631836,8.10085915 C5.29284757,8.56076286 4.24761188,10.2523497 3.13231714,12.1801033 C4.54931775,10.4625268 5.76970105,8.88958836 5.96631836,8.10085915 Z M3.13231714,12.1801033 C3.07242796,12.2512924 3.01027881,12.3270013 2.94925964,12.3981903 C2.96394944,12.4072302 2.97637927,12.4140101 2.99219906,12.42531 C3.03739844,12.3439511 3.08598777,12.2614622 3.13231714,12.1801033 Z M5.50867462,7.58219625 C4.69960569,7.67598496 2.98767912,8.68732113 1.10399489,9.87493487 C3.15830678,9.01388666 4.96628204,8.19012793 5.50867462,7.58219625 Z M1.10286491,9.87719484 C1.00568624,9.91787429 0.906247599,9.95855373 0.805678975,10.0014931 C0.812458883,10.0161829 0.822628743,10.0320027 0.83166862,10.0466925 C0.923197367,9.99132328 1.01359613,9.93369407 1.10286491,9.87719484 Z M5.34256689,6.90759548 C4.58434727,6.61718945 2.59783445,6.71775808 0.376284851,6.89516565 C2.59557448,7.08500305 4.5820873,7.19461155 5.34256689,6.90759548 Z M0.376284851,6.89516565 C0.255376506,6.8838658 0.131078206,6.87256596 0.0112998454,6.8623961 C0.0112998454,6.8838658 0.0090398763,6.90533551 0.0112998454,6.92567523 C0.13446816,6.91437539 0.257636475,6.90420553 0.376284851,6.89516565 Z M5.50867462,6.23638466 C4.97419193,5.627323 3.17073661,4.79339441 1.12320463,3.91878638 C2.99784898,5.11656999 4.70412563,6.13807601 5.50867462,6.23638466 Z M1.12320463,3.91878638 C1.00568624,3.84307741 0.887037862,3.76736845 0.767259501,3.69165948 C0.75708964,3.71312919 0.745789795,3.7345989 0.734489949,3.75380863 C0.865568156,3.80917788 0.996646362,3.86341713 1.12320463,3.91878638 Z M5.9708383,5.71885175 C5.77987091,4.93012254 4.56852749,3.35266412 3.16282672,1.62491777 C4.26569163,3.55945129 5.30188745,5.25555808 5.9708383,5.71885175 Z M3.16282672,1.62491777 C3.08711776,1.49496954 3.01366876,1.36276135 2.9379598,1.23055316 C2.91649009,1.24524296 2.8938904,1.25993276 2.87468066,1.27462256 C2.96959936,1.39101097 3.069038,1.50852936 3.16282672,1.62491777 Z" id="SvgjsPath3892" fill="url(#radialGradient-5)" opacity="0.7"></path>
                                        <path d="M7.78107353,0.0971786702 C7.7539539,0.0937887166 7.72796425,0.0892687785 7.70197461,0.0858788249 C7.69406472,0.241816691 7.68389486,0.398884542 7.67485498,0.553692423 C7.70875452,0.402274495 7.74604401,0.248596598 7.78107353,0.0971786702 Z M7.673725,0.552562439 C7.17427183,2.72439272 6.78442716,4.67587602 6.96296472,5.46799518 C7.35732932,4.75836489 7.53812685,2.77863198 7.673725,0.552562439 Z M6.96183474,5.46799518 C6.86691604,5.63749286 6.76295746,5.74258142 6.64204911,5.75501125 C6.52227075,5.7663111 6.39797245,5.68269224 6.27254417,5.53466427 C6.26802423,5.72789162 6.22508482,5.87026967 6.12225623,5.93693876 C6.02055762,6.00360785 5.87252964,5.98778807 5.6928621,5.91320909 C5.77874093,6.08835669 5.80699054,6.23525468 5.74823134,6.34034324 C5.68834216,6.44656179 5.54935406,6.50080105 5.35838668,6.5188808 C5.51319456,6.63300924 5.60698328,6.74939764 5.60359332,6.87143597 C5.60133335,6.99234432 5.5030247,7.10534277 5.34256689,7.2126913 C5.53353428,7.23981093 5.67026241,7.30196008 5.72337168,7.40930861 C5.77761094,7.51778713 5.7437114,7.66355513 5.65105267,7.83305282 C5.83298018,7.7686437 5.98100816,7.75960382 6.07931681,7.83079285 C6.17762547,7.90198187 6.21491496,8.04548991 6.21039502,8.24097723 C6.34260321,8.09972917 6.46916148,8.01950026 6.59119981,8.03871 C6.70984818,8.05452978 6.81041681,8.16639825 6.89629563,8.34154586 C6.94714494,8.15283844 7.02398389,8.02628017 7.14037229,7.98560073 C7.25450073,7.94492128 7.39461881,7.99690057 7.55055668,8.11102901 C7.50987724,7.92232159 7.51778713,7.77316363 7.600276,7.68389486 C7.68276487,7.59462608 7.83192283,7.57541634 8.02515019,7.60253597 C7.8997219,7.45337801 7.83531278,7.31890985 7.86921232,7.20139146 C7.90085189,7.08387307 8.02289022,6.99799424 8.2070777,6.93358512 C8.02628017,6.86126611 7.90989176,6.76973737 7.88164215,6.65108899 C7.85565251,6.53244061 7.92345158,6.39910244 8.05565977,6.25672439 C7.86130243,6.27480414 7.71553442,6.24994448 7.63756549,6.15728575 C7.55846657,6.06462701 7.5562066,5.91546905 7.60592592,5.72902161 C7.44546812,5.83524015 7.30309007,5.88043953 7.1912216,5.83411017 C7.07483319,5.7877808 7.00477415,5.65783258 6.96183474,5.46799518 Z M7.60366595,5.72902161 C8.28278666,5.2838077 9.36305188,3.61482054 10.5167661,1.70853662 C9.06473596,3.3978635 7.81497306,4.94368235 7.60366595,5.72902161 Z M10.5167661,1.70740664 C10.6173347,1.59214821 10.7201633,1.47462982 10.8196019,1.35598145 C10.7981322,1.34129165 10.7789225,1.32434188 10.7574528,1.30852209 C10.6772239,1.44299025 10.596995,1.57745841 10.5167661,1.70740664 Z M8.0533998,6.25785437 C8.86133874,6.17875545 10.595865,5.20244881 12.5021489,4.05099457 C10.4308873,4.87249333 8.60370227,5.66122253 8.0533998,6.25785437 Z M12.5010189,4.04986458 C12.6332271,3.99788529 12.7665653,3.94590601 12.9010335,3.89392672 C12.8897336,3.87019704 12.8773038,3.84872734 12.8693939,3.82725763 C12.7473556,3.90183661 12.6253172,3.97754557 12.5010189,4.04986458 Z M8.20255776,6.93471511 C8.95512746,7.23981093 10.9439002,7.18105174 13.1688398,7.04884355 C10.9529401,6.81380676 8.96981726,6.66238883 8.20255776,6.93471511 Z M13.1688398,7.04771356 C13.2953981,7.06240336 13.4242163,7.07596317 13.5519046,7.08952299 C13.5519046,7.0669233 13.5530345,7.04545359 13.5541645,7.02398389 C13.4253463,7.03189378 13.2953981,7.03980367 13.1688398,7.04771356 Z M8.02289022,7.60366595 C8.54494307,8.22628743 10.3348386,9.09637553 12.3642908,10.009403 C10.5122462,8.77206997 8.82630922,7.71892438 8.02289022,7.60366595 Z M12.3631608,10.009403 C12.4569495,10.0738122 12.5518682,10.1382213 12.645657,10.1992404 C12.6558268,10.1822907 12.6648667,10.1653409 12.6739066,10.1483911 C12.572208,10.1043217 12.4659894,10.0568624 12.3631608,10.009403 Z M7.54829671,8.112159 C7.7245743,8.90427816 8.90427816,10.5077262 10.2760794,12.2637222 C9.21050397,10.304329 8.20820768,8.5867525 7.54829671,8.112159 Z M10.2760794,12.2603322 C10.3235387,12.3450811 10.3698681,12.4332199 10.4173275,12.5190987 C10.4308873,12.5089288 10.4444471,12.5010189 10.4591369,12.4919791 C10.3981177,12.4151401 10.3359686,12.3360412 10.2760794,12.2603322 Z M6.89629563,8.34267584 C6.68385854,9.12575513 6.98217446,11.0919282 7.38218898,13.2840982 C7.34715946,11.0557687 7.25902067,9.0692559 6.89629563,8.34267584 Z M7.381059,13.2840982 C7.38218898,13.372237 7.38444895,13.4626358 7.38444895,13.5530345 C7.40026874,13.5507746 7.41495854,13.5485146 7.43077832,13.5485146 C7.41495854,13.4615058 7.39800877,13.371107 7.381059,13.2840982 Z M6.21039502,8.24210722 C5.6567026,8.83873905 5.00809147,10.7156434 4.34366056,12.8434043 C5.34821682,10.8557615 6.19344525,9.0545661 6.21039502,8.24210722 Z M4.34253058,12.8434043 C4.30298112,12.9202432 4.26343166,12.9993421 4.22501219,13.078441 C4.238572,13.0852209 4.25100183,13.0886109 4.26569163,13.0953908 C4.29055129,13.0129019 4.31767092,12.9258931 4.34253058,12.8434043 Z M5.64992269,7.83531278 C4.8815332,8.10537909 3.43289303,9.46927043 1.8565646,11.0422089 C3.67244975,9.74950659 5.25668807,8.54607306 5.64992269,7.83531278 Z M1.85769458,11.0422089 C1.78198562,11.0953182 1.7028867,11.1529474 1.62604775,11.2060567 C1.6373476,11.2184865 1.64864744,11.2286564 1.6588173,11.2422162 C1.72322642,11.1755471 1.79102549,11.110008 1.85769458,11.0422089 Z M5.34256689,7.21495127 C4.53688792,7.09743288 2.62269411,7.63078558 0.493803243,8.29069655 C2.70292301,7.99012067 4.66118622,7.66242515 5.34256689,7.21495127 Z M0.493803243,8.29295652 C0.389844665,8.30764632 0.282496134,8.32007615 0.174017619,8.33702592 C0.177407572,8.35397569 0.183057495,8.37092546 0.188707418,8.38674524 C0.291536011,8.35736564 0.393234619,8.3234661 0.493803243,8.29295652 Z M5.35725669,6.52227075 C4.69960569,6.04428729 2.7549023,5.627323 0.563862284,5.22391852 C2.65885362,5.98213814 4.54818776,6.60249965 5.35725669,6.52227075 Z M0.563862284,5.22391852 C0.449733846,5.18210909 0.332215454,5.13916968 0.219217,5.09736025 C0.213567078,5.11882996 0.20678717,5.13916968 0.202267232,5.15837941 C0.325435547,5.17984912 0.446343892,5.20244881 0.563862284,5.22391852 Z M5.6928621,5.91546905 C5.33352702,5.188889 3.80804789,3.91652641 2.05544187,2.54133523 C3.55606134,4.18546273 4.9402924,5.61376318 5.6928621,5.91546905 Z M2.05431189,2.54246521 C1.96052317,2.43963662 1.86560447,2.33567804 1.77068577,2.23171946 C1.75486599,2.24979921 1.73791622,2.26674898 1.72322642,2.28369875 C1.83509489,2.36957758 1.94696336,2.4554564 2.05431189,2.54246521 Z M6.27254417,5.53579425 C6.29175391,4.72446535 5.53127431,2.88711049 4.61824681,0.855398295 C5.18323907,3.00914882 5.74597137,4.91543274 6.27254417,5.53579425 Z M4.61824681,0.855398295 C4.57982733,0.710760274 4.54253784,0.5627323 4.50411837,0.41583431 C4.48038869,0.423744202 4.45552903,0.432784078 4.43292934,0.441823954 C4.49394851,0.579682068 4.55722764,0.718670166 4.61824681,0.855398295 Z" id="SvgjsPath3896" fill="url(#radialGradient-6)" opacity="0.4"></path>
                                        <path d="M9.43989083,6.77990723 C9.43989083,8.24888712 8.25001711,9.43876084 6.78103721,9.43876084 C5.3131873,9.43876084 4.12105361,8.24888712 4.12105361,6.77990723 C4.12105361,5.31205731 5.3131873,4.11992362 6.78103721,4.11992362 C8.25001711,4.11992362 9.43989083,5.31092733 9.43989083,6.77990723 Z" id="SvgjsPath3900" fill="#000000"></path>
                                        <path d="M9.43989083,6.77990723 C9.43989083,8.24888712 8.25001711,9.43876084 6.78103721,9.43876084 C5.3131873,9.43876084 4.12105361,8.24888712 4.12105361,6.77990723 C4.12105361,5.31205731 5.3131873,4.11992362 6.78103721,4.11992362 C8.25001711,4.11992362 9.43989083,5.31092733 9.43989083,6.77990723 Z" id="SvgjsPath3901" fill="#000000" opacity="0.9"></path>
                                        <path d="M3.07016799,9.88510474 C3.57753105,9.54384941 4.26682161,9.68170752 4.60694696,10.1879406 C4.94707231,10.6953036 4.81260415,11.3845942 4.3041111,11.7247196 C3.79561806,12.0671049 3.10745748,11.9315067 2.76733213,11.4230137 C2.42720679,10.9156506 2.56280493,10.2252301 3.07016799,9.88510474 Z" id="SvgjsPath3902" fill="url(#linearGradient-7)" opacity="0.5"></path>
                                        <path d="M8.88167847,6.4092723 C8.59805235,6.83188651 7.78672345,6.78329718 7.0669233,6.30079378 C6.34599316,5.81829038 5.99343799,5.08267045 6.27593412,4.66118622 L6.27593412,4.66005623 C6.55843026,4.23744202 7.37088914,4.28603135 8.08955931,4.76966473 C8.81161942,5.25103815 9.1641746,5.9855281 8.88167847,6.4092723 C8.88167847,6.4092723 8.88167847,6.4092723 8.88167847,6.4092723 Z" id="SvgjsPath3906" fill="url(#linearGradient-8)" opacity="0.5"></path>
                                        <path d="M12.1089143,5.28041774 C11.4670831,6.26689425 9.80826579,6.32565344 8.40821494,5.41262594 C7.00703412,4.49959843 6.39232253,2.96055949 7.03528373,1.97408299 C7.67711495,0.98873647 9.33593225,0.929977274 10.7359831,1.8418748 C12.1360339,2.75603229 12.7507455,4.29620121 12.1089143,5.28041774 Z" id="SvgjsPath3910" fill="url(#linearGradient-9)" opacity="0.75"></path>
                                    </g>
                                </g>
                            </g>
                            <g id="svga-group-eyesfront-left">
                                <path d="M0.872348063,30.1638072 C2.23171946,45.7056146 12.9100733,57.4676236 24.7218017,56.4348178 C36.5335301,55.4008819 45.0072841,41.9631058 43.6479127,26.4212985 C42.2885413,10.8794911 31.6101875,-0.883647908 19.7984591,0.150287944 C7.98560073,1.1842238 -0.487023336,14.6219999 0.872348063,30.1638072 Z M6.71436812,26.161402 C6.99234432,22.6064707 12.4592095,20.6696772 21.9872391,21.1680003 C32.6915827,21.7273427 36.8612256,26.0698733 36.54144,29.6225447 C36.2216544,33.175216 31.6248773,34.9560717 20.831265,34.0317443 C8.61500212,32.9842487 6.47029146,29.2801593 6.71436812,26.161402 Z" id="SvgjsPath3694" fill="#F0C7B1"></path>
                                <path d="M3.16169674,28.4688304 C3.83516752,37.1821412 14.758728,43.5405642 25.6280493,42.5461778 C36.4939806,41.5461415 45.4423282,34.9504218 44.650209,26.2461509 C43.8626098,17.5463999 34.420459,11.3032353 23.5500077,12.2998817 C12.6795565,13.301048 2.23736938,16.5508835 3.16169674,28.4688304 Z M6.71436812,26.161402 C6.99234432,22.6064707 12.4592095,20.6696772 21.9872391,21.1680003 C32.6915827,21.7273427 36.8612256,26.0698733 36.54144,29.6225447 C36.2216544,33.175216 31.6248773,34.9560717 20.831265,34.0317443 C8.61500212,32.9842487 6.47029146,29.2801593 6.71436812,26.161402 Z" id="SvgjsPath3695" fill="url(#radialGradient-10)"></path>
                                <path d="M6.71436812,26.161402 C6.47029146,29.2801593 8.61500212,32.9842487 20.830135,34.0306143 C31.6248773,34.9549417 36.2205244,33.1740861 36.54031,29.6214147 C36.8600956,26.0687433 32.6904527,21.7262127 21.9861091,21.1668704 C12.4592095,20.6696772 6.99234432,22.6053407 6.71436812,26.161402 Z" id="SvgjsPath3700" fill="url(#radialGradient-11)"></path>
                                <path d="M34.5424973,22.0188787 C33.3842632,21.2583991 30.8304981,20.2086435 30.8304981,20.2086435 C30.8304981,20.2086435 33.7356884,20.8730744 34.8871426,21.6538937 C36.0385969,22.434713 37.2397704,24.3274371 37.2397704,24.3274371 C37.2397704,24.3274371 35.7007315,22.7793583 34.5424973,22.0188787 Z M13.5824141,19.3577651 C13.5824141,19.3577651 10.5800452,19.3193456 8.44550443,20.6414275 C6.48611125,21.8550309 5.67930229,23.675436 5.67930229,23.675436 C5.67930229,23.675436 7.54264679,21.7262127 8.85794879,20.8493447 C10.087372,20.0289759 13.5824141,19.3577651 13.5824141,19.3577651 Z" id="SvgjsPath3704" fill="#C27B55"></path>
                                <path d="M22.3262345,21.3894773 C15.3700497,21.1454007 4.68378591,21.8143515 7.17427183,28.4055513 C3.55493136,26.2201612 6.33695329,18.4503875 22.9850155,19.8368786 C31.0497151,20.5080894 40.6387639,24.6675625 36.1888848,30.8700476 C37.5979755,24.3873263 29.1536011,21.630164 22.3262345,21.3894773 Z M34.6035165,32.7831114 L31.1898332,33.8633766 C25.2076951,33.9594253 21.8663308,33.546981 16.2785572,33.2938644 C13.7033225,33.176346 11.3879842,31.9085034 8.37318542,30.5061926 C10.1099717,32.4249063 12.9993421,33.9650752 16.2186681,34.1515227 C21.630164,34.4656584 25.2947039,34.5379774 31.3695008,34.5831768 L34.6035165,32.7831114 Z" id="SvgjsPath3705" fill="#000000"></path>
                            </g>
                        </g>
                        <g id="svga-group-eyes-right" transform="translate(118.648376, 90.398763)" fill-rule="nonzero">
                            <g id="svga-group-eyesback-right" transform="translate(7.909892, 20.339722)" fill="url(#radialGradient-12)">
                                <path d="M30.5762516,5.82168034 C30.8203283,8.94043766 28.6756176,12.644527 16.4604848,13.6908927 C5.66574247,14.61522 1.07009536,12.8343644 0.750309733,9.28169299 C0.430524109,5.72902161 4.60016705,1.38649103 15.3045106,0.827148682 C24.8314102,0.329955485 30.2982754,2.265619 30.5762516,5.82168034 Z" id="SvgjsPath3677"></path>
                            </g>
                            <g id="svga-group-eyesiriswrapper-right" transform="translate(16.384776, 20.622218)">
                                <g id="svga-group-eyesiriscontrol-right">
                                    <g id="svga-group-eyesiris-right">
                                        <path d="M13.5598145,6.77990723 C13.5598145,10.523546 10.523546,13.5598145 6.78103721,13.5598145 C3.03739844,13.5598145 0,10.523546 0,6.77990723 C0,3.03513847 3.03739844,-4.22988216e-15 6.78103721,-4.22988216e-15 C10.523546,-0.00112998454 13.5598145,3.03513847 13.5598145,6.77990723 Z" id="SvgjsPath3914" fill="#000000"></path>
                                        <path d="M6.02055762,0.0745789795 C5.99456797,0.0779689331 5.96744834,0.0813588867 5.94032871,0.0847488403 C5.97309827,0.237296753 6.00586782,0.39097465 6.0363774,0.543522563 C6.02959749,0.388714681 6.02620754,0.230516846 6.02055762,0.0745789795 Z M6.03524742,0.542392578 C6.11321635,2.77072209 6.24429456,4.75610492 6.62057941,5.4736451 C6.81719672,4.68717586 6.48046132,2.72778267 6.03524742,0.542392578 Z M6.61944942,5.47477508 C6.57199007,5.6634825 6.49741109,5.79230074 6.38554262,5.83524015 C6.27141418,5.87817956 6.13016612,5.82846025 5.9708383,5.71885175 C6.01603768,5.90755916 6.01151774,6.05445715 5.93015885,6.1459859 C5.84879997,6.23751465 5.70303196,6.26011434 5.50980461,6.23412469 C5.63636287,6.38102268 5.70303196,6.51549084 5.67478235,6.63300924 C5.64314278,6.75052763 5.52336442,6.83866642 5.34369688,6.90646549 C5.52223444,6.97765452 5.64314278,7.06579331 5.67139239,7.18331171 C5.69964201,7.3008301 5.63523289,7.43529826 5.50754464,7.58106626 C5.69964201,7.55733659 5.84654,7.58219625 5.92563892,7.673725 C6.00586782,7.76525374 6.01038776,7.91328172 5.96518837,8.10198914 C6.12451619,7.99238063 6.26576426,7.94492128 6.37763273,7.98899068 C6.49289115,8.03193009 6.56521016,8.16074833 6.61040955,8.35058573 C6.70080831,8.17882808 6.80476689,8.06921958 6.92567523,8.05678975 C7.04432361,8.04096997 7.17088188,8.12345884 7.29744014,8.26922685 C7.29970011,8.07486951 7.33924957,7.93136147 7.44207817,7.86243241 C7.54038682,7.79350336 7.68954478,7.80706317 7.8703423,7.87712221 C7.78220351,7.70536456 7.75282391,7.55959656 7.80706317,7.45111804 C7.86469238,7.34376951 8.00368048,7.2861403 8.19690784,7.26354061 C8.03758002,7.15167214 7.93927136,7.0375437 7.94266132,6.91550537 C7.94153133,6.79346704 8.03758002,6.6793386 8.19916781,6.5697301 C8.00594045,6.54600043 7.8703423,6.48837122 7.81271309,6.38102268 C7.75621387,6.27367415 7.78785343,6.12677616 7.87712221,5.95501851 C7.6951947,6.02281759 7.54829671,6.0363774 7.44772809,5.96744834 C7.34715946,5.89851929 7.30761001,5.75501125 7.30648002,5.56065391 C7.18105174,5.70529193 7.05336348,5.78552083 6.93358512,5.76970105 C6.81267678,5.75388127 6.70984818,5.64766272 6.61944942,5.47477508 Z M7.30648002,5.55952393 C7.84774261,4.9549822 8.46019423,3.06338808 9.07942576,0.922067383 C8.11554895,2.93004991 7.30873999,4.74819503 7.30648002,5.55952393 Z M9.07942576,0.922067383 C9.14722483,0.784209269 9.21615389,0.644091186 9.28169299,0.503973104 C9.25796332,0.496063212 9.23423364,0.484763367 9.21050397,0.474593506 C9.16643457,0.624881449 9.12349516,0.775169393 9.07942576,0.922067383 Z M7.8782522,5.95501851 C8.63873179,5.67026241 10.0613823,4.27925144 11.6049412,2.67241343 C9.81730566,4.00127525 8.25679702,5.23634835 7.8782522,5.95501851 Z M11.6049412,2.67241343 C11.7179397,2.58766459 11.8331981,2.50291575 11.9495865,2.41816691 C11.9326367,2.39782719 11.9156869,2.38087742 11.9021271,2.36279767 C11.8026885,2.46449628 11.7043798,2.56958484 11.6049412,2.67241343 Z M8.19803782,6.5697301 C9.0037168,6.66916874 10.9088707,6.09852655 13.0242018,5.3934162 C10.8229919,5.74145144 8.86811865,6.10869641 8.19803782,6.5697301 Z M13.0242018,5.39454618 C13.1485001,5.37646643 13.2784483,5.35612671 13.4050066,5.33578699 C13.3993566,5.31431728 13.3948367,5.29284757 13.3891868,5.27137787 C13.2682784,5.31205731 13.1439801,5.35386674 13.0242018,5.39454618 Z M8.19577785,7.26241062 C8.86359871,7.72796425 10.815082,8.10650907 13.0129019,8.46358419 C10.9043508,7.74830397 9.00258681,7.16636194 8.19577785,7.26241062 Z M13.0129019,8.46358419 C13.1202505,8.50087368 13.227599,8.53929315 13.3349475,8.57432267 C13.3405975,8.55511293 13.3451174,8.53703318 13.3496373,8.51782344 C13.2388988,8.50087368 13.1236404,8.48279392 13.0129019,8.46358419 Z M7.8703423,7.87599223 C8.24549717,8.59579238 9.8003559,9.83990535 11.5789516,11.180067 C10.0444326,9.56418913 8.6308219,8.16526827 7.8703423,7.87599223 Z M11.5800815,11.177807 C11.6467506,11.2478661 11.7145497,11.3201851 11.7812188,11.3913741 C11.7925186,11.3778143 11.8038185,11.3676444 11.8162483,11.3552146 C11.7371494,11.2964554 11.6557905,11.2365662 11.5800815,11.177807 Z M7.30081932,8.26809686 C7.29744014,9.08055574 8.09407924,10.9020908 9.04891618,12.9157233 C8.43872453,10.7721426 7.83870274,8.87602854 7.30081932,8.26809686 Z M9.04891618,12.9168533 C9.07264585,13.0016021 9.09750551,13.0886109 9.1201052,13.1756197 C9.13705497,13.1688398 9.1494848,13.1643199 9.1641746,13.1597999 C9.12575513,13.078441 9.08620567,12.9948222 9.04891618,12.9168533 Z M6.61153953,8.34945575 C6.23186473,9.0692559 6.09061666,11.0501188 5.99908791,13.2773183 C6.45560166,11.0964482 6.80476689,9.13818496 6.61153953,8.34945575 Z M5.99908791,13.2773183 C5.97987817,13.3620672 5.96405839,13.447946 5.94597864,13.5349548 C5.96179842,13.5383447 5.97309827,13.5383447 5.99004803,13.5406047 C5.992308,13.4535959 5.99682794,13.3631971 5.99908791,13.2773183 Z M5.96518837,8.10085915 C5.29171759,8.56076286 4.24648189,10.2523497 3.13118715,12.1801033 C4.54931775,10.4625268 5.76857106,8.88958836 5.96518837,8.10085915 Z M3.13118715,12.1801033 C3.07242796,12.2512924 3.01027881,12.3270013 2.94925964,12.3981903 C2.96394944,12.4072302 2.97637927,12.4140101 2.99106907,12.42531 C3.03739844,12.3439511 3.08598777,12.2614622 3.13118715,12.1801033 Z M5.50754464,7.58219625 C4.69847571,7.67598496 2.98767912,8.68732113 1.10399489,9.87493487 C3.15830678,9.01388666 4.96628204,8.19012793 5.50754464,7.58219625 Z M1.10399489,9.87719484 C1.00568624,9.91787429 0.906247599,9.95855373 0.80680896,10.0014931 C0.813588867,10.0161829 0.822628743,10.0320027 0.832798604,10.0466925 C0.923197367,9.99132328 1.01359613,9.93369407 1.10399489,9.87719484 Z M5.34369688,6.90759548 C4.58434727,6.61718945 2.59783445,6.71775808 0.376284851,6.89516565 C2.59670447,7.08500305 4.5820873,7.19461155 5.34369688,6.90759548 Z M0.376284851,6.89516565 C0.25650649,6.8838658 0.131078206,6.87256596 0.0124298299,6.8623961 C0.0112998454,6.8838658 0.0090398763,6.90533551 0.0112998454,6.92567523 C0.13446816,6.91437539 0.257636475,6.90420553 0.376284851,6.89516565 Z M5.50980461,6.23638466 C4.97419193,5.627323 3.1718666,4.79339441 1.12320463,3.91878638 C2.99784898,5.11656999 4.70412563,6.13807601 5.50980461,6.23638466 Z M1.12320463,3.91878638 C1.00568624,3.84307741 0.885907878,3.76736845 0.767259501,3.69165948 C0.75708964,3.71312919 0.745789795,3.7345989 0.735619934,3.75380863 C0.865568156,3.80917788 0.997776347,3.86341713 1.12320463,3.91878638 Z M5.9708383,5.71885175 C5.77987091,4.93012254 4.56852749,3.35266412 3.16282672,1.62491777 C4.26569163,3.55945129 5.30188745,5.25555808 5.9708383,5.71885175 Z M3.16282672,1.62491777 C3.08711776,1.49496954 3.01253878,1.36276135 2.93908978,1.23055316 C2.91762008,1.24524296 2.89502039,1.25993276 2.87468066,1.27462256 C2.97072935,1.39101097 3.069038,1.50852936 3.16282672,1.62491777 Z" id="SvgjsPath3915" fill="url(#radialGradient-13)" opacity="0.7"></path>
                                        <path d="M7.78107353,0.0971786702 C7.7539539,0.0937887166 7.72796425,0.0892687785 7.70197461,0.0858788249 C7.69293473,0.241816691 7.68389486,0.398884542 7.67485498,0.553692423 C7.70762453,0.402274495 7.74491402,0.248596598 7.78107353,0.0971786702 Z M7.673725,0.552562439 C7.17314185,2.72439272 6.78442716,4.67587602 6.96183474,5.46799518 C7.35732932,4.75836489 7.53812685,2.77863198 7.673725,0.552562439 Z M6.96183474,5.46799518 C6.86691604,5.63749286 6.76182747,5.74258142 6.64204911,5.75501125 C6.52227075,5.7663111 6.39797245,5.68269224 6.27254417,5.53466427 C6.26802423,5.72789162 6.22508482,5.87026967 6.12225623,5.93693876 C6.02055762,6.00360785 5.87252964,5.98778807 5.6928621,5.91320909 C5.77761094,6.08835669 5.80699054,6.23525468 5.74823134,6.34034324 C5.68721218,6.44656179 5.54935406,6.50080105 5.35725669,6.5188808 C5.51319456,6.63300924 5.60585329,6.74939764 5.60246334,6.87143597 C5.60020337,6.99234432 5.50189471,7.10534277 5.34256689,7.2126913 C5.53466427,7.23981093 5.66913243,7.30196008 5.72337168,7.40930861 C5.77761094,7.51778713 5.7437114,7.66355513 5.65105267,7.83305282 C5.83411017,7.7686437 5.98213814,7.75960382 6.0804468,7.83079285 C6.17875545,7.90198187 6.21604494,8.04548991 6.21039502,8.24097723 C6.34260321,8.09972917 6.46916148,8.01950026 6.59119981,8.03871 C6.70984818,8.05452978 6.81041681,8.16639825 6.89629563,8.34154586 C6.94827492,8.15283844 7.02398389,8.02628017 7.14037229,7.98560073 C7.25450073,7.94492128 7.3957488,7.99690057 7.55055668,8.11102901 C7.51100722,7.92232159 7.51891711,7.77316363 7.60140598,7.68389486 C7.68276487,7.59462608 7.83192283,7.57541634 8.02515019,7.60253597 C7.90085189,7.45337801 7.83531278,7.31890985 7.86921232,7.20139146 C7.8997219,7.08387307 8.02289022,6.99799424 8.2070777,6.93358512 C8.02741016,6.86126611 7.90989176,6.76973737 7.88164215,6.65108899 C7.85678249,6.53244061 7.92458156,6.39910244 8.05565977,6.25672439 C7.86130243,6.27480414 7.71440444,6.24994448 7.63756549,6.15728575 C7.55846657,6.06462701 7.5562066,5.91546905 7.60705591,5.72902161 C7.44546812,5.83524015 7.30309007,5.88043953 7.1912216,5.83411017 C7.07596317,5.7877808 7.00364416,5.65783258 6.96183474,5.46799518 Z M7.60366595,5.72902161 C8.28278666,5.2838077 9.36305188,3.61482054 10.5167661,1.70853662 C9.06473596,3.3978635 7.81497306,4.94368235 7.60366595,5.72902161 Z M10.5167661,1.70740664 C10.6173347,1.59214821 10.7201633,1.47462982 10.8207319,1.35598145 C10.7981322,1.34129165 10.7789225,1.32434188 10.7574528,1.30852209 C10.6772239,1.44299025 10.596995,1.57745841 10.5167661,1.70740664 Z M8.0533998,6.25785437 C8.86133874,6.17875545 10.594735,5.20244881 12.5021489,4.05099457 C10.4308873,4.87249333 8.60370227,5.66122253 8.0533998,6.25785437 Z M12.5010189,4.04986458 C12.6320971,3.99788529 12.7654353,3.94590601 12.9010335,3.89392672 C12.8897336,3.87019704 12.8773038,3.84872734 12.8693939,3.82725763 C12.7473556,3.90183661 12.6253172,3.97754557 12.5010189,4.04986458 Z M8.20255776,6.93471511 C8.95512746,7.23981093 10.9439002,7.18105174 13.1699698,7.04884355 C10.9518101,6.81380676 8.96981726,6.66238883 8.20255776,6.93471511 Z M13.1688398,7.04771356 C13.2942681,7.06240336 13.4242163,7.07596317 13.5519046,7.08952299 C13.5530345,7.0669233 13.5530345,7.04545359 13.5541645,7.02398389 C13.4264763,7.03189378 13.2953981,7.03980367 13.1688398,7.04771356 Z M8.02289022,7.60366595 C8.54607306,8.22628743 10.3348386,9.09637553 12.3642908,10.009403 C10.5122462,8.77206997 8.82630922,7.71892438 8.02289022,7.60366595 Z M12.3631608,10.009403 C12.4558196,10.0738122 12.5518682,10.1382213 12.645657,10.1992404 C12.6558268,10.1822907 12.6659967,10.1653409 12.6727766,10.1483911 C12.572208,10.1043217 12.4659894,10.0568624 12.3631608,10.009403 Z M7.5494267,8.112159 C7.7245743,8.90427816 8.90427816,10.5077262 10.2760794,12.2637222 C9.21050397,10.304329 8.20933767,8.5867525 7.5494267,8.112159 Z M10.2772094,12.2603322 C10.3235387,12.3450811 10.3698681,12.4332199 10.4173275,12.5190987 C10.4308873,12.5089288 10.4433171,12.5010189 10.4591369,12.4919791 C10.3981177,12.4151401 10.3348386,12.3360412 10.2772094,12.2603322 Z M6.89629563,8.34267584 C6.68385854,9.12575513 6.98217446,11.0919282 7.38218898,13.2840982 C7.34715946,11.0557687 7.25902067,9.0692559 6.89629563,8.34267584 Z M7.381059,13.2840982 C7.38218898,13.372237 7.38444895,13.4626358 7.38444895,13.5530345 C7.40139872,13.5507746 7.41382855,13.5485146 7.42964834,13.5485146 C7.41495854,13.4615058 7.39800877,13.371107 7.381059,13.2840982 Z M6.20926503,8.24210722 C5.6567026,8.83873905 5.00696149,10.7156434 4.34253058,12.8434043 C5.34821682,10.8557615 6.19231527,9.0545661 6.20926503,8.24210722 Z M4.34253058,12.8434043 C4.30298112,12.9202432 4.26456165,12.9993421 4.22501219,13.078441 C4.238572,13.0852209 4.24987185,13.0886109 4.26456165,13.0953908 C4.29055129,13.0129019 4.31767092,12.9258931 4.34253058,12.8434043 Z M5.64992269,7.83531278 C4.8815332,8.10537909 3.43402301,9.46927043 1.85769458,11.0422089 C3.67244975,9.74950659 5.25668807,8.54607306 5.64992269,7.83531278 Z M1.85769458,11.0422089 C1.78198562,11.0953182 1.70175671,11.1529474 1.62604775,11.2060567 C1.6373476,11.2184865 1.64864744,11.2286564 1.6588173,11.2422162 C1.72322642,11.1755471 1.79215548,11.110008 1.85769458,11.0422089 Z M5.34256689,7.21495127 C4.53688792,7.09743288 2.6238241,7.63078558 0.494933227,8.29069655 C2.70292301,7.99012067 4.6623162,7.66242515 5.34256689,7.21495127 Z M0.494933227,8.29295652 C0.389844665,8.30764632 0.282496134,8.32007615 0.175147603,8.33702592 C0.179667541,8.35397569 0.18418748,8.37092546 0.189837402,8.38674524 C0.291536011,8.35736564 0.393234619,8.3234661 0.494933227,8.29295652 Z M5.35725669,6.52227075 C4.69960569,6.04428729 2.7549023,5.627323 0.563862284,5.22391852 C2.65885362,5.98213814 4.54818776,6.60249965 5.35725669,6.52227075 Z M0.563862284,5.22391852 C0.449733846,5.18210909 0.332215454,5.13916968 0.219217,5.09736025 C0.212437093,5.11882996 0.20678717,5.13916968 0.202267232,5.15837941 C0.324305562,5.17984912 0.446343892,5.20244881 0.563862284,5.22391852 Z M5.6928621,5.91546905 C5.33352702,5.188889 3.80691791,3.91652641 2.05431189,2.54133523 C3.55606134,4.18546273 4.9402924,5.61376318 5.6928621,5.91546905 Z M2.05431189,2.54246521 C1.96052317,2.43963662 1.86560447,2.33567804 1.77068577,2.23171946 C1.753736,2.24979921 1.7390462,2.26674898 1.72209644,2.28369875 C1.8339649,2.36957758 1.94809334,2.4554564 2.05431189,2.54246521 Z M6.27254417,5.53579425 C6.29175391,4.72446535 5.53127431,2.88711049 4.61824681,0.855398295 C5.18436906,3.00914882 5.74597137,4.91543274 6.27254417,5.53579425 Z M4.61824681,0.855398295 C4.57982733,0.710760274 4.54253784,0.5627323 4.50298838,0.41583431 C4.47925871,0.423744202 4.45439905,0.432784078 4.43179936,0.441823954 C4.49394851,0.579682068 4.55722764,0.718670166 4.61824681,0.855398295 Z" id="SvgjsPath3919" fill="url(#radialGradient-14)" opacity="0.4"></path>
                                        <path d="M9.43989083,6.77990723 C9.43989083,8.24888712 8.24888712,9.43876084 6.78103721,9.43876084 C5.31205731,9.43876084 4.12105361,8.24888712 4.12105361,6.77990723 C4.12105361,5.31205731 5.3131873,4.11992362 6.78103721,4.11992362 C8.25114709,4.11992362 9.43989083,5.31092733 9.43989083,6.77990723 Z" id="SvgjsPath3923" fill="#000000"></path>
                                        <path d="M9.43989083,6.77990723 C9.43989083,8.24888712 8.24888712,9.43876084 6.78103721,9.43876084 C5.31205731,9.43876084 4.12105361,8.24888712 4.12105361,6.77990723 C4.12105361,5.31205731 5.3131873,4.11992362 6.78103721,4.11992362 C8.25114709,4.11992362 9.43989083,5.31092733 9.43989083,6.77990723 Z" id="SvgjsPath3924" fill="#000000" opacity="0.9"></path>
                                        <path d="M3.07129797,9.88510474 C3.57753105,9.54384941 4.2679516,9.68170752 4.60694696,10.1879406 C4.94820229,10.6953036 4.81373413,11.3845942 4.3041111,11.7247196 C3.79561806,12.0671049 3.10745748,11.9315067 2.76846212,11.4230137 C2.42720679,10.9156506 2.56280493,10.2252301 3.07129797,9.88510474 Z" id="SvgjsPath3925" fill="url(#linearGradient-15)" opacity="0.5"></path>
                                        <path d="M8.88054848,6.4092723 C8.59692236,6.83188651 7.78559346,6.78329718 7.0669233,6.30079378 C6.34599316,5.81829038 5.99343799,5.08267045 6.27593412,4.66118622 L6.27706411,4.66005623 C6.55956024,4.23744202 7.37201912,4.28603135 8.09068929,4.76966473 C8.81161942,5.25103815 9.1641746,5.9855281 8.88054848,6.4092723 C8.88054848,6.4092723 8.88054848,6.4092723 8.88054848,6.4092723 Z" id="SvgjsPath3929" fill="url(#linearGradient-16)" opacity="0.5"></path>
                                        <path d="M12.1100443,5.28041774 C11.4670831,6.26689425 9.80939577,6.32565344 8.40821494,5.41262594 C7.0081641,4.49959843 6.39232253,2.96055949 7.03528373,1.97408299 C7.67711495,0.98873647 9.33480227,0.929977274 10.7359831,1.8418748 C12.1360339,2.75603229 12.7507455,4.29620121 12.1100443,5.28041774 Z" id="SvgjsPath3933" fill="url(#linearGradient-17)" opacity="0.75"></path>
                                    </g>
                                </g>
                            </g>
                            <g id="svga-group-eyesfront-right">
                                <path d="M25.4009224,0.150287944 C13.589194,-0.883647908 2.91084017,10.8794911 1.55146877,26.4212985 C0.192097371,41.9631058 8.66585142,55.4008819 20.4775798,56.4348178 C32.2893082,57.4676236 42.967662,45.7056146 44.3270334,30.1638072 C45.6875348,14.6219999 37.2149108,1.1842238 25.4009224,0.150287944 Z M24.3692465,34.0306143 C13.5745043,34.9549417 8.97885714,33.1740861 8.65907151,29.6214147 C8.33928589,26.0687433 12.5089288,21.7262127 23.2132724,21.1668704 C32.741302,20.6696772 38.2081672,22.6053407 38.4861434,26.160272 C38.72909,29.2801593 36.5855094,32.9842487 24.3692465,34.0306143 Z" id="SvgjsPath3715" fill="#F0C7B1"></path>
                                <path d="M21.6493738,12.2998817 C10.7789225,11.3032353 1.33677171,17.5463999 0.549172485,26.2461509 C-0.242946676,34.9504218 8.70540088,41.5461415 19.5713322,42.5461778 C30.4406535,43.5405642 41.364214,37.1821412 42.0376848,28.4688304 C42.9631421,16.5508835 32.519825,13.301048 21.6493738,12.2998817 Z M24.3692465,34.0306143 C13.5745043,34.9549417 8.97885714,33.1740861 8.65907151,29.6214147 C8.33928589,26.0687433 12.5089288,21.7262127 23.2132724,21.1668704 C32.741302,20.6696772 38.2081672,22.6053407 38.4861434,26.160272 C38.72909,29.2801593 36.5855094,32.9842487 24.3692465,34.0306143 Z" id="SvgjsPath3716" fill="url(#radialGradient-18)"></path>
                                <path d="M38.4861434,26.161402 C38.73022,29.2801593 36.5855094,32.9842487 24.3703765,34.0306143 C13.5756342,34.9549417 8.97998712,33.1740861 8.6602015,29.6214147 C8.34041587,26.0687433 12.5100588,21.7262127 23.2144023,21.1668704 C32.741302,20.6696772 38.2081672,22.6053407 38.4861434,26.161402 Z" id="SvgjsPath3721" fill="url(#radialGradient-19)"></path>
                                <path d="M7.96074107,24.3274371 C7.96074107,24.3274371 9.16191463,22.434713 10.3133689,21.6538937 C11.4648231,20.8730744 14.3700134,20.2086435 14.3700134,20.2086435 C14.3700134,20.2086435 11.8162483,21.2583991 10.6580142,22.0188787 C9.49978001,22.7793583 7.96074107,24.3274371 7.96074107,24.3274371 Z M36.3414327,20.8493447 C37.6567347,21.7262127 39.5200792,23.675436 39.5200792,23.675436 C39.5200792,23.675436 38.7132703,21.8561609 36.7538771,20.6414275 C34.6193363,19.3204756 31.6169674,19.3577651 31.6169674,19.3577651 C31.6169674,19.3577651 35.1120095,20.0289759 36.3414327,20.8493447 Z" id="SvgjsPath3725" fill="#C27B55"></path>
                                <path d="M9.01162669,30.8711776 C4.56174758,24.6686924 14.1507964,20.5092194 22.215496,19.8380085 C38.8635582,18.4515175 41.6455801,26.2201612 38.0262397,28.4066813 C40.5167256,21.8154815 29.8304618,21.1465306 22.874277,21.3906073 C16.0457804,21.630164 7.60253597,24.3873263 9.01162669,30.8711776 Z M13.8298808,34.5820468 C19.9046776,34.5368474 23.5692175,34.4645284 28.9807134,34.1503927 C32.2011694,33.9639452 35.0894098,32.4237763 36.8261961,30.5050626 C33.8113973,31.9073734 31.496059,33.175216 28.9208243,33.2927344 C23.3330507,33.546981 19.9916864,33.9582953 14.0095483,33.8622466 L10.595865,32.7819814 L13.8298808,34.5820468 Z" id="SvgjsPath3726" fill="#000000"></path>
                            </g>
                        </g>
                        <g id="svga-group-facehighlight-single" transform="translate(65.539103, 40.679443)" fill-rule="nonzero">
                            <path d="M93.7887166,110.709105 C93.8282661,136.271615 73.1190395,157.031691 47.5294096,157.066721 C21.9442997,157.10853 1.16840401,136.418513 1.12885455,110.850353 C1.08930509,85.2901029 21.7985317,64.4486681 47.3870316,64.4079887 C72.9732715,64.3684392 93.7514271,85.1432049 93.7887166,110.709105 Z" id="SvgjsPath2885" fill="url(#radialGradient-20)"></path>
                            <path d="M89.8337707,42.9382824 C89.8337707,66.3413922 70.8624603,85.3127026 47.4604806,85.3127026 C24.0573708,85.3127026 5.08493042,66.3413922 5.08493042,42.9382824 C5.08493042,19.5351727 24.0573708,0.563862284 47.4604806,0.563862284 C70.8624603,0.563862284 89.8337707,19.5351727 89.8337707,42.9382824 Z" id="SvgjsPath2889" fill="url(#radialGradient-21)"></path>
                        </g>
                        <g id="svga-group-eyebrows-left" transform="translate(58.759196, 97.178670)" fill="#2A232B" fill-rule="nonzero">
                            <path d="M0.551432454,8.89297831 C8.99806687,-1.70966661 23.533058,0.0542392578 35.443095,1.75825594 C38.4725836,2.19217 41.5913409,2.51760555 44.5620702,3.26791528 C46.6909611,3.80465794 48.3644682,6.23073474 46.6536716,8.19012793 C45.8536426,9.12236517 44.1078164,8.94947754 43.0298112,8.92687785 C28.7682763,8.63873179 12.6479169,0.437304016 0.551432454,8.89297831 Z" id="SvgjsPath4057"></path>
                        </g>
                        <g id="svga-group-eyebrows-right" transform="translate(119.778361, 97.178670)" fill="#2A232B" fill-rule="nonzero">
                            <path d="M46.9813671,8.46358419 C44.5360806,6.82736658 41.948416,5.67252238 39.022886,5.19905886 C28.2914229,3.45888267 7.85113257,10.6116848 2.47805609,9.09750551 C-0.812458883,8.16865822 -0.14689799,4.87249333 1.30852209,4.06003444 C2.18426011,3.57075114 2.42720679,3.58318097 10.2455698,2.23849937 C23.530798,-0.044069397 38.4059145,-1.85882456 46.9813671,8.46358419 Z" id="SvgjsPath4058"></path>
                        </g>
                        <g id="svga-group-nose-single" transform="translate(102.828593, 119.778361)" fill-rule="nonzero">
                            <path d="M0.129948222,34.4633984 C-0.862178202,36.7956865 6.83527647,39.313292 9.7562865,39.4680999 C12.9202432,39.6342077 21.7861019,36.1911448 20.2832225,33.8272171 C18.7023741,31.3469011 12.7767352,33.5040415 10.2195802,33.5040415 C7.67485498,33.5029116 1.45881004,31.351421 0.129948222,34.4633984 Z" id="SvgjsPath4079" fill="#E1AC8F"></path>
                            <path d="M12.2682421,36.2250443 C12.0083457,35.367386 14.3880931,34.4351488 15.270611,34.3108505 C16.514724,34.130053 19.0673591,35.2170981 18.8391022,36.1097859 C18.6311851,36.8985151 16.4118954,35.5075041 15.6073464,35.6250225 C14.7779378,35.7459309 12.5145788,37.0284633 12.2682421,36.2250443 Z M4.49055855,35.9459381 C5.58438359,35.9459381 7.20704138,36.6499185 7.5053573,36.029557 C7.86130243,35.2894171 5.08832037,34.3786496 4.27360152,34.4792182 C3.60013074,34.5583171 1.18535378,35.9651479 1.51756923,36.5572598 C1.827185,37.1007823 3.04869828,35.9459381 4.49055855,35.9459381 Z" id="SvgjsPath4080" fill="#C27B55"></path>
                            <path d="M10.2704295,30.5084525 C10.9563301,30.5084525 12.2388625,29.672264 12.2953618,27.988587 C12.5224886,21.1996399 11.2150965,1.05766553 10.2704295,1.12885455 C9.38904152,1.19552364 7.70875452,21.0583918 8.06921958,27.988587 C8.15848836,29.6858238 9.49639005,30.5084525 10.2704295,30.5084525 Z" id="SvgjsPath4081" fill="#FFF5EF" opacity="0.2"></path>
                        </g>
                        <g id="svga-group-beardwrap" transform="translate(0.000000, 22.599691)">
                            <g id="svga-group-beard-single"></g>
                        </g>
                        <g id="svga-group-mustache-single" transform="translate(0.000000, 22.599691)"></g>
                        <g id="svga-group-hair-front" transform="translate(37.289490, 0.000000)" fill-rule="nonzero">
                            <path d="M13.5304349,129.829573 C10.7924823,119.86876 9.3178525,111.147539 7.27032052,102.048904 L7.36410923,102.027434 C6.58893984,100.11889 3.79109812,85.0098668 3.76510848,84.847149 C0.911897522,64.7673237 9.40712128,63.6215194 9.23423364,55.2438141 C12.8106347,57.0348396 16.2875971,56.1466717 19.4255642,53.7013852 C16.1282693,52.0075383 17.1689851,51.739732 12.790295,49.0740985 C15.8762828,48.5407458 17.6786081,49.2605459 20.3001722,49.5871115 C18.0594129,47.3463521 13.6615131,42.7755647 10.8037822,43.3812364 L10.6173347,42.9812219 C14.7542081,39.752856 20.2764425,46.4740041 25.2551544,44.653599 C25.4054424,26.1523621 52.4504923,22.3104147 59.0326522,19.5611623 C67.7956823,16.226578 76.949687,8.89297831 83.387209,8.23758728 C79.7430088,11.8998672 77.5112894,17.7848266 77.3451816,22.2019362 C82.653849,17.1328256 83.0290039,17.2808535 91.0756238,8.34380583 C91.0756238,15.5350274 89.083461,16.4378851 86.4980564,20.6583773 C93.5163904,16.0593402 102.266991,3.15604681 115.743186,1.18309381 L115.891214,1.60118809 C111.034541,4.46230894 107.276212,9.28960288 104.706627,15.9610316 C107.257002,12.8806937 110.866173,9.53932947 114.860668,8.93478774 L115.010956,9.35175203 C112.50804,10.8489815 107.605038,15.8401232 106.482963,24.1974889 C111.433425,18.6684745 119.308287,14.0863872 124.714133,12.3552509 L124.925441,12.7462256 C119.962548,16.7836603 117.972646,23.8517136 116.850571,29.8609714 C120.330923,24.6856422 122.355856,23.5059384 126.734546,21.3318481 C125.325455,23.4392693 125.416984,23.0708943 124.296039,25.361373 C127.003482,32.2802683 135.94957,32.5492046 137.478439,44.6377792 C139.320314,43.0286812 140.051414,42.6252767 142.169005,41.143867 L142.48766,41.4512228 C140.896642,43.922499 139.58473,48.2989291 138.711252,51.227849 C141.852609,48.8288918 146.703633,47.061596 150.119576,45.8287829 L150.358003,46.1994178 C147.475412,49.1294677 143.97585,53.5962966 143.395038,58.4416703 C144.525022,57.7727195 144.579262,57.8495584 146.050501,56.785113 C146.050501,60.2665953 146.16915,59.8225114 146.19401,61.4236995 C147.6144,60.1524669 147.832487,59.9750593 148.765854,58.9592032 C148.559067,95.5277628 146.681033,88.2393626 141.627742,113.725034 C140.741834,118.203163 139.174546,126.022656 138.168859,129.778724 L131.333583,130.952778 C133.446654,105.647904 131.228494,111.164489 132.765273,95.2407468 C135.038802,71.760798 116.036982,52.5137714 90.9275958,58.8134352 C85.8471853,60.0880578 65.5707428,60.0869278 60.4925922,58.8134352 C32.7548618,51.8493405 22.7612785,68.0567087 19.7837693,96.4170607 C18.3249592,110.33621 17.9678841,105.638864 20.0854752,130.952778 L13.5304349,129.829573 Z" id="SvgjsPath3830" fill="#2A232B"></path>
                            <path d="M146.19288,61.4248295 C146.16915,59.8225114 146.049372,60.2677253 146.049372,56.786243 C144.578132,57.8495584 144.523892,57.7738494 143.393908,58.4428003 C143.97472,53.5974266 147.474282,49.1305977 150.356873,46.2005478 L150.118446,45.8299129 C146.703633,47.063856 141.852609,48.8300218 138.710122,51.228979 C139.58247,48.3000591 140.895512,43.923629 142.48653,41.4523528 L142.167875,41.144997 C140.050284,42.6264067 139.319184,43.0298112 137.477309,44.6389092 C135.94844,32.5514646 127.002352,32.2813983 124.294909,25.3625029 C125.415854,23.0720243 125.324325,23.4403992 126.733416,21.3329781 C122.354726,23.5070683 120.329793,24.6867722 116.849441,29.8621014 C117.971516,23.8528436 119.962548,16.7847903 124.924311,12.7473556 L124.713003,12.3563809 C119.307157,14.0875172 111.432295,18.6696045 106.481833,24.1986189 C107.603908,15.8412532 112.50691,10.8501115 115.009826,9.35288202 L114.859538,8.93591772 C110.865043,9.54045945 107.255872,12.8829537 104.705497,15.9621616 C107.275082,9.29073287 111.034541,4.46343892 115.890084,1.60231807 L115.742056,1.1842238 C102.265861,3.1571768 93.5152604,16.0604702 86.4969264,20.6595073 C89.082331,16.4390151 91.0744938,15.5350274 91.0744938,8.34493581 C83.0278739,17.2819835 82.652719,17.1339555 77.3440516,22.2030662 C77.5090294,17.7859566 79.7418788,11.8998672 83.386079,8.23871726 C76.949687,8.8941083 67.7956823,16.226578 59.0315222,19.5622923 C52.4504923,22.3104147 25.4054424,26.1523621 25.2551544,44.654729 C20.2764425,46.475134 14.7542081,39.753986 10.6173347,42.9823518 L10.8037822,43.3823664 C13.6615131,42.7755647 18.0594129,47.3463521 20.3001722,49.5882415 C17.6797381,49.2616759 15.8762828,48.5418758 12.790295,49.0752285 C17.1689851,51.740862 16.1282693,52.0086683 19.4255642,53.7025152 C16.2875971,56.1478017 12.8106347,57.0359695 9.23423364,55.244944 C9.40712128,63.6237794 0.910767537,64.7695837 3.76510848,84.848279 C3.79109812,85.0109967 6.58893984,100.12002 7.36410923,102.028564 L7.27032052,102.050034 C9.3178525,111.148669 10.7924823,119.87102 13.5304349,129.830703 L13.5598145,129.834093 C12.8128947,111.254888 1.10738485,84.842629 7.97656085,67.9245005 C8.87263859,65.7153808 12.3394312,59.8891805 12.3394312,59.8891805 C12.3394312,59.8891805 23.2177923,58.46088 23.7296753,54.2392578 C23.7296753,54.2392578 21.4697062,53.1092733 20.3397217,51.9792887 C22.5996908,53.1092733 22.5996908,49.7193197 24.8596598,50.8493042 C24.8596598,48.5893351 21.4697062,49.7193197 21.4697062,47.4593506 C23.7296753,47.4593506 25.9896444,47.4593506 28.2496134,49.7193197 C27.1196289,44.069397 28.2496134,38.4194743 32.7695516,35.0295207 C44.069397,25.9896444 58.759196,27.1196289 70.0590413,18.0797526 C68.9290568,23.7296753 67.7990723,29.379598 67.7990723,35.0295207 C74.5789795,31.6395671 76.8389486,24.8596598 82.4888712,20.3397217 C83.6188558,24.8596598 81.3588867,30.5095825 81.3588867,35.0295207 C84.7488403,27.1196289 89.2687785,19.2097371 99.4386393,16.9497681 C94.9187012,21.4697062 94.9187012,28.2496134 94.9187012,33.8995361 C94.9187012,29.379598 99.4386393,27.1196289 100.568624,23.7296753 C100.568624,28.2496134 100.568624,32.7695516 100.568624,37.2894897 C102.828593,30.5095825 107.348531,27.1196289 112.998454,24.8596598 C108.478516,29.379598 109.6085,33.8995361 108.478516,39.5494588 C111.868469,36.1595052 116.388407,35.0295207 119.778361,31.6395671 C123.168315,38.4194743 120.908346,44.069397 120.908346,50.8493042 C122.03833,45.1993815 127.688253,41.8094279 131.078206,37.2894897 C132.208191,42.9394124 132.208191,48.5893351 131.078206,54.2392578 C132.208191,50.8493042 134.46816,48.5893351 135.598145,45.1993815 C135.598145,50.6911064 134.843315,55.4393014 133.360775,60.0496383 C134.778906,58.4089008 137.094244,57.6642409 137.858114,55.3692423 C137.858114,60.2564255 137.858114,64.3006401 137.858114,68.9595664 C138.513505,67.6126248 140.445778,67.1425512 141.248067,65.5391032 C140.28306,69.3957404 140.961051,72.4353988 141.181398,76.0502194 C141.600622,73.8354497 143.732903,72.4772082 144.503553,70.4375862 C144.548752,69.5584582 144.595081,68.6782002 144.636891,67.7990723 C144.895657,68.8296182 144.789439,69.6793665 144.503553,70.4375862 C143.473007,90.5185414 141.573503,110.570117 137.434369,129.906412 L138.166599,129.780984 C139.172286,126.024916 140.738444,118.205423 141.625482,113.727294 C146.679903,88.2416225 148.557937,95.5300228 148.763594,58.9614632 C147.831357,59.9773193 147.61327,60.1547269 146.19288,61.4248295 Z" id="SvgjsPath3831" fill="#3A353A"></path>
                            <path d="M152.298186,44.8547362 C146.705893,45.7971433 142.799536,47.6096385 139.811857,49.6571705 C140.246901,48.521536 142.289913,42.1201736 144.489993,39.4308104 C141.111339,40.9370798 139.156466,42.5529577 138.026481,43.3970562 C138.026481,42.2309121 137.576747,40.8839706 137.35979,40.1879001 C137.146223,39.605958 136.966556,38.9257074 135.92358,37.2273406 C130.08043,28.9829734 129.715445,32.4316862 124.92996,26.1195926 C125.802309,24.0731906 127.064501,22.0832878 128.64761,20.4357704 C124.23163,21.0629118 121.907252,22.7804883 119.11054,25.5320006 C119.065341,25.5772 119.031441,25.6223994 118.997542,25.6675988 C120.750148,18.7453135 124.184171,12.7439656 130.930178,10.4919064 C122.586373,10.1890706 112.257184,16.3587862 107.064905,22.5149419 C109.306794,15.3045106 112.314813,11.8693576 116.783902,8.67263133 C113.567966,8.19690784 110.416439,9.51107985 107.923693,11.5879914 C110.794984,6.61944942 115.061806,2.66224357 118.490179,0.81923879 C118.003155,0.807938944 117.427993,0.774039408 116.795202,0.81923879 C115.917204,0.594371867 110.604017,1.45881004 108.704513,2.27691884 C99.2928713,5.95162856 92.445165,14.5056115 89.5060752,17.2831135 C91.6711256,13.7824214 91.7773441,11.2964554 91.3818496,7.65564524 C90.6417097,8.29182654 78.2570792,20.1476243 78.1045312,20.3001722 C78.9825292,15.4310688 80.6413465,12.4614695 83.7770536,8.10763906 C78.1870201,7.06127338 64.1921616,16.2627375 55.5161403,18.7181939 C46.4265447,21.1804302 23.8720533,26.3150799 24.9048592,44.3688429 C20.0515756,45.2943002 12.9451029,37.5019268 9.22067383,44.0411474 C12.2106129,42.2670716 16.1712087,46.5384132 18.927241,48.9791798 C17.7972565,48.7949923 14.0197182,47.9079544 12.1925332,49.1260778 C14.3327239,49.9566164 16.2039783,52.4391924 18.8481421,53.7590144 C18.8820416,53.7703142 18.9159412,53.7816141 18.9498407,53.8042138 C16.5328038,55.0788363 13.6762029,56.1026023 11.0512488,55.3748923 C10.6557542,55.2618938 10.3958577,55.1940947 10.3958577,55.1827949 C10.0907619,55.0471968 9.76306641,54.9115986 9.4127712,54.7534008 L9.40147135,54.7534008 L9.39017151,54.7421009 C9.24327352,54.663002 9.09637553,54.5839031 8.93817769,54.5048042 C9.72351695,60.8417575 0.105088562,65.9797972 1.16388407,79.3870637 C1.59892812,87.6370808 6.75617755,112.730647 13.2388988,129.745955 L13.7846814,129.908672 C11.0817584,120.161426 9.51672978,110.992731 7.49179748,101.996924 C7.3155199,101.996924 4.019355,84.9974369 3.98884542,84.8098595 C1.15710417,64.8871021 9.6319882,63.4418519 9.46927043,55.611059 C12.9959522,57.3749649 16.8503294,56.1037323 19.8425285,53.6561858 C16.3192367,51.9035798 17.0706764,51.4097765 13.4242163,49.1927469 C15.8683729,48.7701326 18.851532,49.7385294 20.9047139,49.8707376 C18.2537702,47.2197939 13.7869413,42.5145382 10.7574528,43.1586294 C14.7892376,40.0116225 20.3589314,46.8548089 25.4811513,44.8084069 C25.4811513,26.2958702 52.2877745,22.6211605 59.120791,19.7679495 C67.3369086,16.6424123 77.5203292,9.06021602 82.7815372,8.52460335 C80.024375,11.3021053 77.1090149,17.4526112 77.1090149,22.7398088 C82.5713601,17.4989406 83.1092328,17.5249302 90.8496268,8.93139779 C90.8496268,15.7271248 88.3105516,16.9407282 85.8426654,21.3273282 C93.0903862,17.1486453 101.864716,3.4419329 115.775956,1.40570076 C109.952015,4.83746381 106.244536,10.812822 104.012817,17.1915848 C106.67054,13.7349621 110.566727,9.81278573 114.894568,9.15739469 C112.624429,10.5156361 107.141744,15.6909653 106.171087,24.8980793 C111.08087,19.1193384 119.263088,14.3372438 124.781933,12.569948 C119.578354,16.80513 117.586191,24.2890176 116.431347,30.8982972 C118.337631,27.990847 120.224705,25.3647629 123.177354,23.5081983 C123.189784,23.4968985 123.211254,23.4855986 123.222554,23.4855986 C124.385308,22.6957394 124.081342,22.9104365 126.071245,21.9149201 C125.315285,23.0449047 125.245226,22.8980067 124.048573,25.3500731 C126.789915,32.5559845 135.9394,32.596664 137.302161,45.090903 C139.400542,43.2298185 140.060453,42.894213 142.296693,41.3280545 C140.554257,44.0332375 139.150816,48.9757898 138.285248,51.8595104 C141.567853,49.0514988 147.64039,46.9666773 150.195285,46.04009 C146.805331,49.4865428 143.513686,54.0584603 143.121582,58.8767144 C143.815392,58.4100307 144.69678,58.0405258 145.822245,57.2269369 C145.822245,60.3050148 145.969143,59.8937004 145.969143,61.9276726 C146.563514,61.38415 147.912716,60.221396 148.535337,59.5434052 C148.313861,95.3819948 146.410967,88.4303299 141.404005,113.680964 C139.530491,123.145715 138.541754,127.523275 137.922523,129.820534 L138.406156,129.722225 C142.456021,117.573761 150.5388,90.1253068 150.173815,75.9168812 C150.136526,70.6059539 148.977161,59.5321054 148.919532,58.4021208 C148.895803,58.4224606 146.564644,60.6281904 146.535265,60.6281904 C146.535265,60.0507683 146.297968,57.5941819 146.297968,56.2551502 C145.899084,56.561376 145.060635,57.1342782 143.9363,57.7919292 C145.494549,53.0878036 147.866387,50.1645336 152.298186,44.8547362 Z" id="SvgjsPath3832" fill="#000000"></path>
                        </g>
                        <g id="svga-group-glasses-single" transform="translate(53.109273, 99.438639)" fill-rule="nonzero">
                            <path d="M109.179106,36.2725037 C106.512343,38.7584696 102.139302,39.7076567 93.8565157,39.7076567 C82.8052669,39.7076567 75.5733659,38.4759735 70.7935313,28.9615037 C67.0758822,21.5714048 65.5730027,13.6389134 67.380978,10.9043508 C69.8782438,7.13020243 77.0649455,4.56513753 85.0878357,3.80804789 C99.020545,10.4297573 108.806211,23.7070756 109.179106,36.2725037 Z M28.2609133,3.58205098 C19.6278314,3.81934774 11.2094466,6.23751465 7.61609578,11.548442 C5.15272949,15.1756923 5.70642192,25.7297479 7.36749919,30.69038 C9.62746826,37.4589874 13.0965208,39.7076567 25.9218453,39.7076567 C36.9730941,39.7076567 44.2049951,38.4759735 48.9848297,28.9615037 C49.4594232,28.0123167 49.9001172,27.0518298 50.3069116,26.091343 C46.6570616,16.8932688 38.6002718,8.39578511 28.2609133,3.58205098 Z" id="SvgjsPath3207" fill="#FFFFFF" opacity="0.2"></path>
                            <path d="M112.410862,30.7016799 C111.608573,33.0972471 110.648086,34.9165222 109.179106,36.2838035 C108.806211,23.7183754 99.020545,10.4410571 85.0765358,3.80804789 C95.664491,2.80236165 107.664927,4.92673258 112.162265,11.5597418 C114.625632,15.1869922 114.071939,25.7297479 112.410862,30.7016799 Z M52.4086829,10.9043508 C49.256026,6.12451619 38.6002718,3.29955485 28.2609133,3.59335083 C38.6115717,8.39578511 46.6570616,16.8932688 50.3182115,26.1026428 C53.0414742,19.6165316 53.9793614,13.2886182 52.4086829,10.9043508 Z" id="SvgjsPath3208" fill="#FFFFFF" opacity="0.4"></path>
                            <path d="M118.41108,6.33921326 C106.907837,0.169497681 77.5734385,-1.58197835 66.9967832,6.50871094 C66.0927956,7.03980367 62.2169486,5.90981913 59.8891805,5.90981913 C57.6857106,5.90981913 53.7646643,7.0963029 52.7815778,6.50871094 C42.2049225,-1.58197835 12.8705239,0.169497681 1.36728129,6.33921326 C-0.282496134,7.23190104 -0.46329366,11.4354435 0.971786702,12.0795347 C2.00007263,12.5428284 2.67806335,13.1869196 2.62156413,14.3169041 C2.25996908,20.6674172 4.01144511,28.9163043 4.77983459,31.1875732 C5.76292114,34.1142332 7.53699687,39.5607587 15.2773909,40.9054403 C21.8652008,42.0467246 33.8430369,42.5778174 40.0692517,40.7133429 C51.3577972,37.345989 56.1602315,20.3284218 56.3636287,14.5316012 L56.3749286,14.5542008 C56.8269224,12.5202287 62.9514386,12.5202287 63.4147323,14.5542008 L63.4260321,14.5316012 C63.6181295,20.3284218 68.4318636,37.345989 79.7204091,40.7133429 C85.9466239,42.5778174 97.92446,42.0467246 104.51227,40.9054403 C112.252664,39.5607587 114.02674,34.1142332 115.009826,31.1875732 C115.778216,28.9050045 117.529692,20.6674172 117.179397,14.3169041 C117.122897,13.1869196 117.812188,12.5428284 118.829174,12.0795347 C120.241655,11.4354435 120.060857,7.23190104 118.41108,6.33921326 Z M38.8827679,37.6962842 C33.1650462,39.4025608 22.7013894,39.5155593 16.6107727,38.4533738 C11.4806429,37.560686 9.33367228,34.7696242 7.90989176,30.5095825 C6.23751465,25.5376506 5.79682068,15.2434914 8.09068929,11.8648376 C15.7293848,0.58759196 46.3632656,2.76846212 51.9340894,11.2094466 C54.4200553,14.9948948 49.5950214,34.4984279 38.8827679,37.6962842 Z M111.868469,30.5208824 C110.444689,34.7809241 108.286418,37.5719859 103.167588,38.4646737 C97.0769716,39.5268591 86.6133148,39.4138607 80.8955931,37.707584 C70.1833396,34.5097278 65.3583057,15.0061947 67.8442716,11.2207465 C73.4150954,2.77976196 104.048976,0.598891805 111.687672,11.8761375 C113.98154,15.2434914 113.540846,25.5489504 111.868469,30.5208824 Z" id="SvgjsPath3209" fill="#26120B"></path>
                            <path d="M80.8842932,37.6510848 C84.0369501,38.588972 88.6359871,39.0522656 93.1446254,39.0861652 C78.9746193,40.4647463 75.7541634,35.2442177 73.7992902,33.2554449 C69.8217446,29.1988005 67.3696781,23.1420833 67.1888806,14.4412024 C67.2227801,21.3115084 72.0478141,35.0182208 80.8842932,37.6510848 Z M52.7589781,6.46351156 C42.1823228,-1.62717773 12.8479242,0.112998454 1.3446816,6.29401387 C27.6055223,-1.07348531 42.8603135,2.73456258 52.7589781,6.46351156 Z M16.588173,38.4194743 C11.4580432,37.5267865 9.31107259,34.7357247 7.88729207,30.475683 C6.39571248,26.0348437 5.88721944,17.3452627 7.43529826,13.1304203 C5.36742655,17.8989551 6.16971558,27.1309287 7.72909424,31.7751652 C9.5370695,37.199091 12.859224,39.8884542 27.3230261,39.0748653 C23.4019798,39.1539642 19.4922333,38.9166675 16.588173,38.4194743 Z M119.744461,9.37887166 C119.699262,8.10198914 119.235968,6.75730754 118.38848,6.29401387 C107.111234,0.237296753 78.6808234,-1.54807882 67.6182747,6.01151774 C82.4888712,0.0564992269 103.924678,-0.779689331 119.744461,9.37887166 Z" id="SvgjsPath3210" fill="#351D15"></path>
                        </g>
                    </g>
                </g>
            </g>
        </g>
    </g>
</svg>